<svg width="24" height="24" viewBox="0 0 24 24" fill="none" xmlns="http://www.w3.org/2000/svg">
<path d="M15.5557 13.8V12.9C15.5557 12.4226 15.3559 11.9648 15.0003 11.6272C14.6446 11.2896 14.1623 11.1 13.6594 11.1H10.3409C9.83794 11.1 9.35561 11.2896 8.99999 11.6272C8.64437 11.9648 8.44458 12.4226 8.44458 12.9V13.8" stroke="white" stroke-linecap="round" stroke-linejoin="round"/>
<path d="M12 11.1C13.2273 11.1 14.2223 10.0926 14.2223 8.84998C14.2223 7.60733 13.2273 6.59998 12 6.59998C10.7728 6.59998 9.77783 7.60733 9.77783 8.84998C9.77783 10.0926 10.7728 11.1 12 11.1Z" stroke="white" stroke-linecap="round" stroke-linejoin="round"/>
<rect x="4" y="3" width="16" height="18" rx="4" stroke="white" stroke-linecap="round" stroke-linejoin="round"/>
<path d="M9.3335 16.5H14.4555" stroke="white" stroke-linecap="round" stroke-linejoin="round"/>
</svg>
