<svg width="70" height="45" viewBox="0 0 70 45" fill="none" xmlns="http://www.w3.org/2000/svg">
<path d="M67.4594 1.24412e-07L0.0019531 14.6344L0.742707 18.0056C4.80971 36.5152 23.2075 48.2441 41.8354 44.2029C60.4632 40.1618 72.2672 21.8808 68.2002 3.37129L67.4594 1.24412e-07Z" fill="#75BC51"/>
<path d="M67.4594 1.24412e-07L0.0019531 14.6344L0.394116 16.4191C4.46112 34.9287 22.8589 46.6576 41.4868 42.6165C60.1147 38.5753 71.9186 20.2943 67.8516 1.7848L67.4594 1.24412e-07Z" fill="#C0D373"/>
<path d="M67.4594 1.24412e-07L0.0019531 14.6344C4.04489 33.0344 22.5334 44.6506 41.0511 40.6333C59.5687 36.6161 71.5023 18.4 67.4594 1.24412e-07Z" fill="#FC9C9C"/>
</svg>
