<svg width="20" height="20" viewBox="0 0 20 20" fill="none" xmlns="http://www.w3.org/2000/svg">
<g id="Icons/24px/Calender">
<g id="Calender 1">
<path id="Vector" d="M4.45423 17.8417L4.74813 17.4372L4.45423 17.8417ZM3.49556 16.883L3.90007 16.5891L3.49556 16.883ZM17.4404 16.883L17.0359 16.5891L17.4404 16.883ZM16.4817 17.8417L16.1878 17.4372L16.4817 17.8417ZM16.4817 3.89686L16.1878 4.30137L16.4817 3.89686ZM17.4404 4.85553L17.0359 5.14943L17.4404 4.85553ZM4.45423 3.89686L4.74813 4.30137L4.45423 3.89686ZM3.49556 4.85553L3.90007 5.14943L3.49556 4.85553ZM12.568 3.93594C12.568 4.21208 12.7918 4.43594 13.068 4.43594C13.3441 4.43594 13.568 4.21208 13.568 3.93594H12.568ZM13.568 1.33594C13.568 1.0598 13.3441 0.835938 13.068 0.835938C12.7918 0.835938 12.568 1.0598 12.568 1.33594H13.568ZM7.36797 3.93594C7.36797 4.21208 7.59183 4.43594 7.86797 4.43594C8.14411 4.43594 8.36797 4.21208 8.36797 3.93594H7.36797ZM8.36797 1.33594C8.36797 1.0598 8.14411 0.835938 7.86797 0.835938C7.59183 0.835938 7.36797 1.0598 7.36797 1.33594H8.36797ZM18.2429 13.4693L18.7426 13.4864L18.2429 13.4693ZM13.068 18.6442L13.0508 18.1445L13.068 18.6442ZM2.69304 8.26927L2.19333 8.25215L2.69304 8.26927ZM18.2429 8.26927L18.7426 8.25215L18.2429 8.26927ZM10.468 18.1693C8.83195 18.1693 7.64509 18.1686 6.72345 18.0687C5.81116 17.9699 5.21823 17.7787 4.74813 17.4372L4.16034 18.2462C4.82932 18.7322 5.61837 18.9549 6.61574 19.0629C7.60375 19.17 8.85422 19.1693 10.468 19.1693V18.1693ZM2.16797 10.8693C2.16797 12.483 2.16728 13.7335 2.27433 14.7215C2.38239 15.7189 2.60501 16.5079 3.09105 17.1769L3.90007 16.5891C3.55852 16.119 3.36735 15.5261 3.26851 14.6138C3.16866 13.6921 3.16797 12.5053 3.16797 10.8693H2.16797ZM4.74813 17.4372C4.4227 17.2007 4.13651 16.9145 3.90007 16.5891L3.09105 17.1769C3.38917 17.5872 3.75002 17.9481 4.16034 18.2462L4.74813 17.4372ZM17.0359 16.5891C16.7994 16.9145 16.5132 17.2007 16.1878 17.4372L16.7756 18.2462C17.1859 17.9481 17.5468 17.5872 17.8449 17.1769L17.0359 16.5891ZM16.1878 4.30137C16.5132 4.53781 16.7994 4.824 17.0359 5.14943L17.8449 4.56164C17.5468 4.15132 17.1859 3.79047 16.7756 3.49236L16.1878 4.30137ZM4.16034 3.49236C3.75002 3.79047 3.38917 4.15132 3.09105 4.56164L3.90007 5.14943C4.13651 4.824 4.4227 4.53781 4.74813 4.30137L4.16034 3.49236ZM17.768 10.8693C17.768 11.8851 17.7679 12.7308 17.7432 13.4522L18.7426 13.4864C18.768 12.7442 18.768 11.8796 18.768 10.8693H17.768ZM17.7432 13.4522C17.688 15.0616 17.5091 15.9378 17.0359 16.5891L17.8449 17.1769C18.5109 16.2602 18.687 15.1082 18.7426 13.4864L17.7432 13.4522ZM10.468 19.1693C11.4783 19.1693 12.3429 19.1693 13.0851 19.1439L13.0508 18.1445C12.3295 18.1692 11.4838 18.1693 10.468 18.1693V19.1693ZM13.0851 19.1439C14.7069 19.0883 15.8589 18.9122 16.7756 18.2462L16.1878 17.4372C15.5365 17.9104 14.6603 18.0893 13.0508 18.1445L13.0851 19.1439ZM3.16797 10.8693C3.16797 9.85343 3.16803 9.00777 3.19275 8.28639L2.19333 8.25215C2.16791 8.9943 2.16797 9.85897 2.16797 10.8693H3.16797ZM3.19275 8.28639C3.24789 6.67694 3.42688 5.80071 3.90007 5.14943L3.09105 4.56164C2.42504 5.47834 2.2489 6.63035 2.19333 8.25215L3.19275 8.28639ZM2.69304 8.76927H18.2429V7.76927H2.69304V8.76927ZM18.768 10.8693C18.768 9.85897 18.768 8.9943 18.7426 8.25215L17.7432 8.28639C17.7679 9.00777 17.768 9.85343 17.768 10.8693H18.768ZM18.7426 8.25215C18.687 6.63035 18.5109 5.47834 17.8449 4.56164L17.0359 5.14943C17.5091 5.80071 17.688 6.67694 17.7432 8.28639L18.7426 8.25215ZM13.568 3.93594V3.09434H12.568V3.93594H13.568ZM13.568 3.09434V1.33594H12.568V3.09434H13.568ZM10.468 3.56927C11.4838 3.56927 12.3295 3.56933 13.0508 3.59405L13.0851 2.59464C12.3429 2.56921 11.4783 2.56927 10.468 2.56927V3.56927ZM13.0508 3.59405C14.6603 3.64919 15.5365 3.82818 16.1878 4.30137L16.7756 3.49236C15.8589 2.82634 14.7069 2.6502 13.0851 2.59464L13.0508 3.59405ZM8.36797 3.93594V3.09434H7.36797V3.93594H8.36797ZM8.36797 3.09434V1.33594H7.36797V3.09434H8.36797ZM10.468 2.56927C9.45767 2.56927 8.593 2.56921 7.85085 2.59464L7.88509 3.59405C8.60647 3.56933 9.45213 3.56927 10.468 3.56927V2.56927ZM7.85085 2.59464C6.22905 2.6502 5.07703 2.82634 4.16034 3.49236L4.74813 4.30137C5.39941 3.82818 6.27563 3.64919 7.88509 3.59405L7.85085 2.59464Z" fill="#1C1919"/>
</g>
</g>
</svg>
