<svg width="24" height="24" viewBox="0 0 24 24" fill="none" xmlns="http://www.w3.org/2000/svg">
<path d="M15.5006 4.80151H17.2507C17.7149 4.80151 18.1601 4.99114 18.4883 5.32868C18.8165 5.66621 19.0009 6.12401 19.0009 6.60136V19.2003C19.0009 19.6776 18.8165 20.1354 18.4883 20.473C18.1601 20.8105 17.7149 21.0001 17.2507 21.0001H6.75011C6.28595 21.0001 5.8408 20.8105 5.51259 20.473C5.18439 20.1354 5 19.6776 5 19.2003V6.60136C5 6.12401 5.18439 5.66621 5.51259 5.32868C5.8408 4.99114 6.28595 4.80151 6.75011 4.80151H8.50021" stroke="white" stroke-linecap="round"/>
<path d="M14.6254 2.99988H9.37505C8.89177 2.99988 8.5 3.40279 8.5 3.8998V5.69965C8.5 6.19666 8.89177 6.59957 9.37505 6.59957H14.6254C15.1087 6.59957 15.5004 6.19666 15.5004 5.69965V3.8998C15.5004 3.40279 15.1087 2.99988 14.6254 2.99988Z" stroke="white" stroke-linecap="round"/>
</svg>
