<svg width="52" height="52" viewBox="0 0 52 52" fill="none" xmlns="http://www.w3.org/2000/svg">
<g id="Marketplace/Fresh food/Default">
<g id="Group 1000008938">
<path id="Vector 234250855" d="M40.6065 1.64358C40.0543 3.27063 39.2177 5.69031 38.895 6.93552C38.7966 7.31543 38.982 7.69054 39.3127 7.89964C39.6006 8.08165 39.9472 8.31127 40.2099 8.51794C40.5083 8.75267 40.8637 9.09105 41.1496 9.37623C41.4658 9.69159 41.9476 9.77873 42.3456 9.57753L47.7671 6.83696C48.2335 6.60115 48.399 6.01472 48.1251 5.56811C47.8984 5.19853 47.4404 5.04566 47.0386 5.20547L46.5448 5.40191C45.7773 5.70716 45.1418 4.74021 45.7227 4.15122L46.9022 2.95543C47.2753 2.57709 47.2725 1.96652 46.8959 1.59168C46.5048 1.20243 45.8686 1.22265 45.5028 1.63595L43.6334 3.7481C43.0385 4.42015 41.9486 3.82045 42.1921 2.95508L42.4046 2.20003C42.5501 1.68286 42.2367 1.14825 41.7159 1.02526C41.243 0.913576 40.7633 1.18169 40.6065 1.64358Z" fill="white" stroke="#383434" stroke-linecap="round" stroke-linejoin="round"/>
<path id="Rectangle 41116" d="M17.9922 26.4492L27.8967 10.613C30.7472 6.05535 37.0677 5.32493 40.8741 9.1133L42.2345 10.4673C45.3184 13.5366 44.8009 18.6805 41.1681 21.0679" stroke="#383434" stroke-linecap="round" stroke-linejoin="round"/>
<path id="Vector 234250856" d="M26.9431 12.2117L30.6328 15.2103M22.1499 19.7634L25.0197 22.0957" stroke="#383434" stroke-linecap="round" stroke-linejoin="round"/>
<path id="Rectangle 41115" d="M22.9098 13.5513C21.1755 10.7187 17.4838 9.83471 14.6639 11.5768L4.40832 17.9127C1.38178 19.7825 0.437226 23.7629 2.2986 26.8032" stroke="#383434" stroke-linecap="round" stroke-linejoin="round"/>
<path id="Vector 234250851" d="M4.35779 17.1314C5.63619 15.4335 7.08813 14.6147 8.12449 14.2833C8.51048 14.1598 8.71519 13.6611 8.4342 13.368C8.23299 13.1581 8.02441 12.9573 7.8219 12.7726C7.47102 12.4525 7.65861 12.0251 8.07473 12.253C8.65339 12.5698 9.20674 13.0267 9.6168 13.4221C9.8406 13.6379 10.2065 13.627 10.4136 13.395C11.9756 11.6459 13.5741 10.9932 14.7678 10.8358C15.2456 10.7727 15.443 11.5252 15.187 11.9353C14.9061 12.3853 14.684 12.9032 14.5312 13.3404C14.4333 13.6206 14.6248 13.9059 14.8948 14.0269C15.3006 14.2087 15.6158 14.5034 15.8552 14.833C16.1474 15.2351 15.441 15.882 14.9455 15.8858C13.7118 15.8951 12.1146 16.3588 11.069 16.7494C10.8808 16.8197 10.7605 16.9993 10.7239 17.1977C10.3463 19.2416 7.1927 23.0834 7.54139 21.8726C7.81699 20.9156 7.50124 19.2817 7.27294 18.4433C7.24406 18.3372 7.18051 18.2424 7.0829 18.1927C6.5714 17.9321 5.6243 17.8869 4.80903 17.916C4.38924 17.931 4.10439 17.4679 4.35779 17.1314Z" fill="white" stroke="#383434" stroke-linecap="round" stroke-linejoin="round"/>
<path id="Vector 234250854" d="M48.1931 26.8981C48.9275 25.5602 49.4468 24.1591 49.7764 22.9142C49.864 22.5834 49.592 22.2742 49.2529 22.3071L28.4266 24.3238C28.2652 24.3394 28.1232 24.4412 28.1472 24.6023C28.2247 25.1212 28.8138 26.1996 29.8302 27.396" stroke="#383434" stroke-linecap="round" stroke-linejoin="round"/>
<path id="Rectangle 41115_2" d="M0.845215 36.0605H50.9998V36.0605C50.9998 44.3963 44.2424 51.1537 35.9067 51.1537H15.9384C7.60264 51.1537 0.845215 44.3963 0.845215 36.0605V36.0605Z" fill="#6BE3A2"/>
<path id="Rectangle 41116_2" d="M0.845215 28.8319H50.9998V35.1546C50.9998 43.9912 43.8364 51.1546 34.9998 51.1546H16.8452C8.00864 51.1546 0.845215 43.9912 0.845215 35.1546V28.8319Z" stroke="#383434" stroke-linecap="round" stroke-linejoin="round"/>
</g>
</g>
</svg>
