<svg width="30" height="30" viewBox="0 0 30 30" fill="none" xmlns="http://www.w3.org/2000/svg">
<g id="Property 1=Cart, Property 2=Hover" clip-path="url(#clip0_828_1439)">
<g id="Group 1000007135">
<path id="Vector" d="M11.1858 28.9961C11.8887 28.9961 12.4585 28.4206 12.4585 27.7106C12.4585 27.0006 11.8887 26.425 11.1858 26.425C10.4829 26.425 9.91309 27.0006 9.91309 27.7106C9.91309 28.4206 10.4829 28.9961 11.1858 28.9961Z" fill="white" stroke="#EC187B"/>
<path id="Vector_2" d="M25.1824 29C25.8853 29 26.4551 28.4245 26.4551 27.7145C26.4551 27.0045 25.8853 26.4289 25.1824 26.4289C24.4795 26.4289 23.9097 27.0045 23.9097 27.7145C23.9097 28.4245 24.4795 29 25.1824 29Z" fill="white" stroke="#EC187B"/>
<path id="Vector_3" d="M1 1H6.09091L9.50182 18.8529C9.6182 19.4667 9.93697 20.0181 10.4023 20.4106C10.8677 20.803 11.45 21.0115 12.0473 20.9995H24.4182C25.0155 21.0115 25.5978 20.803 26.0631 20.4106C26.5285 20.0181 26.8473 19.4667 26.9636 18.8529L29 7.6665H7.36364" stroke="#EC187B"/>
<g id="Vector_4" filter="url(#filter0_d_828_1439)">
<path d="M10.4025 20.4106C9.93711 20.0181 9.61834 19.4667 9.50195 18.8529L7.36377 7.6665H29.0001L26.9638 18.8529C26.8474 19.4667 26.5286 20.0181 26.0633 20.4106C25.5979 20.803 25.0156 21.0115 24.4183 20.9995H12.0474C11.4501 21.0115 10.8678 20.803 10.4025 20.4106Z" fill="white"/>
<path d="M10.4025 20.4106C9.93711 20.0181 9.61834 19.4667 9.50195 18.8529L7.36377 7.6665H29.0001L26.9638 18.8529C26.8474 19.4667 26.5286 20.0181 26.0633 20.4106C25.5979 20.803 25.0156 21.0115 24.4183 20.9995H12.0474C11.4501 21.0115 10.8678 20.803 10.4025 20.4106Z" stroke="#EC187B"/>
</g>
</g>
</g>
<defs>
<filter id="filter0_d_828_1439" x="3.75928" y="4.1665" width="28.8403" height="20.3335" filterUnits="userSpaceOnUse" color-interpolation-filters="sRGB">
<feFlood flood-opacity="0" result="BackgroundImageFix"/>
<feColorMatrix in="SourceAlpha" type="matrix" values="0 0 0 0 0 0 0 0 0 0 0 0 0 0 0 0 0 0 127 0" result="hardAlpha"/>
<feOffset/>
<feGaussianBlur stdDeviation="1.5"/>
<feComposite in2="hardAlpha" operator="out"/>
<feColorMatrix type="matrix" values="0 0 0 0 0.92549 0 0 0 0 0.0941176 0 0 0 0 0.482353 0 0 0 0.4 0"/>
<feBlend mode="normal" in2="BackgroundImageFix" result="effect1_dropShadow_828_1439"/>
<feBlend mode="normal" in="SourceGraphic" in2="effect1_dropShadow_828_1439" result="shape"/>
</filter>
<clipPath id="clip0_828_1439">
<rect width="30" height="30" fill="white"/>
</clipPath>
</defs>
</svg>
