<svg width="24" height="24" viewBox="0 0 24 24" fill="none" xmlns="http://www.w3.org/2000/svg">
<g id="Component 28">
<g id="Group 1000009337">
<path id="Vector" d="M12 21C16.9706 21 21 16.9706 21 12C21 7.02944 16.9706 3 12 3C7.02944 3 3 7.02944 3 12C3 16.9706 7.02944 21 12 21Z" stroke="white" stroke-linecap="round" stroke-linejoin="round"/>
<path id="Vector_2" d="M9.38086 9.30003C9.59245 8.69853 10.0101 8.19133 10.5598 7.86825C11.1095 7.54517 11.7559 7.42707 12.3843 7.53487C13.0128 7.64267 13.5828 7.9694 13.9934 8.45721C14.4041 8.94501 14.6288 9.5624 14.6279 10.2C14.6279 12 11.9279 12.9 11.9279 12.9V14.25" stroke="white" stroke-linecap="round" stroke-linejoin="round"/>
<path id="Vector_3" d="M12 16.5H12.009" stroke="white" stroke-width="1.5" stroke-linecap="round" stroke-linejoin="round"/>
</g>
</g>
</svg>
