<svg width="129" height="30" viewBox="0 0 129 30" fill="none" xmlns="http://www.w3.org/2000/svg">
<path d="M58.1154 18.7113C57.4967 18.7113 56.8941 18.7079 56.2927 18.7148C56.1848 18.7148 56.1699 18.6512 56.1458 18.5796C56.0471 18.2837 55.9449 17.9902 55.8543 17.692C55.8221 17.588 55.7751 17.5556 55.6672 17.5556C54.8052 17.5602 53.9432 17.5602 53.0812 17.5556C52.9745 17.5556 52.9251 17.5857 52.8941 17.692C52.8035 17.9902 52.699 18.2837 52.6015 18.5796C52.5774 18.6524 52.5624 18.716 52.4557 18.7148C51.8543 18.709 51.2517 18.7125 50.625 18.7125C50.7604 18.3288 50.889 17.9601 51.0198 17.5926C51.7383 15.5747 52.458 13.5568 53.1719 11.5378C53.2259 11.3853 53.289 11.3228 53.4623 11.3263C54.0901 11.339 54.718 11.3332 55.3447 11.3298C55.4525 11.3298 55.5111 11.3517 55.5524 11.4661C56.3983 13.8573 57.25 16.2462 58.1005 18.6362C58.1062 18.6536 58.1085 18.672 58.1177 18.7137L58.1154 18.7113ZM54.3736 13.2691C54.0764 14.1601 53.794 15.013 53.5071 15.8648C53.4726 15.9677 53.522 15.9677 53.5943 15.9677C54.1131 15.9677 54.6319 15.9642 55.1507 15.9688C55.2769 15.97 55.262 15.918 55.2322 15.8313C55.1369 15.5551 55.0474 15.2777 54.9544 15.0003C54.765 14.4352 54.5756 13.8712 54.3736 13.2691Z" fill="white"/>
<path d="M129 18.7124C128.613 18.7124 128.226 18.7067 127.839 18.7171C127.707 18.7205 127.634 18.6697 127.559 18.5703C126.658 17.3533 125.755 16.1398 124.852 14.9252C124.814 14.8743 124.775 14.8246 124.729 14.7645C124.675 14.8327 124.698 14.9044 124.697 14.9668C124.696 16.1525 124.693 17.3383 124.699 18.5241C124.699 18.6685 124.67 18.7205 124.514 18.7171C124.032 18.7055 123.551 18.709 123.069 18.7159C122.952 18.7171 122.92 18.6824 122.92 18.5657C122.923 16.2069 122.923 13.848 122.92 11.4892C122.92 11.3656 122.951 11.324 123.078 11.3274C123.408 11.3367 123.738 11.3378 124.067 11.3274C124.203 11.3228 124.283 11.3713 124.364 11.4788C125.263 12.6958 126.167 13.9093 127.07 15.1239C127.107 15.1725 127.147 15.2199 127.213 15.2996C127.217 15.1956 127.223 15.1297 127.223 15.0638C127.223 13.8839 127.226 12.705 127.219 11.525C127.219 11.3644 127.263 11.324 127.42 11.3263C127.946 11.3355 128.473 11.3286 128.999 11.3274V18.7124H129Z" fill="white"/>
<path d="M43.3707 14.4114C42.9724 15.7913 42.573 17.1643 42.1804 18.5396C42.1437 18.6679 42.0943 18.7188 41.952 18.7165C41.3885 18.7061 40.8237 18.7107 40.259 18.713C40.1695 18.713 40.1121 18.7061 40.08 18.5963C39.389 16.1877 38.6935 13.7815 38.0002 11.3742C37.9991 11.3684 38.0025 11.3615 38.0083 11.3291H38.5798C38.9414 11.3291 39.3029 11.3372 39.6633 11.3256C39.8045 11.321 39.8585 11.3696 39.8918 11.5025C40.2958 13.0858 40.7055 14.6691 41.1141 16.2513C41.1291 16.3114 41.1474 16.3704 41.1773 16.4755C41.2633 16.1866 41.338 15.9393 41.4091 15.6908C41.8085 14.3039 42.2103 12.9171 42.6016 11.5279C42.6464 11.3684 42.713 11.3199 42.8737 11.3256C43.2214 11.3384 43.5715 11.336 43.9193 11.3256C44.057 11.321 44.1156 11.3638 44.1534 11.4978C44.6068 13.0881 45.0659 14.6761 45.5239 16.2652C45.54 16.3195 45.556 16.375 45.5882 16.4801C45.6639 16.1958 45.7282 15.9566 45.7902 15.7162C46.1552 14.3062 46.5225 12.8974 46.8817 11.4851C46.9138 11.3603 46.962 11.3245 47.0849 11.3256C47.5979 11.3326 48.1121 11.3314 48.6252 11.3256C48.748 11.3245 48.7767 11.3511 48.74 11.4759C48.0524 13.8451 47.3695 16.2155 46.6889 18.5882C46.6556 18.7026 46.5959 18.713 46.4995 18.713C45.9348 18.7095 45.3712 18.7061 44.8065 18.7153C44.6711 18.7176 44.624 18.6725 44.5873 18.5477C44.2085 17.221 43.8229 15.8954 43.4395 14.5697C43.4235 14.5154 43.42 14.4565 43.3684 14.4103L43.3707 14.4114Z" fill="white"/>
<path d="M91.6009 14.4837C91.1568 15.1795 90.7126 15.8752 90.2695 16.5709C90.0882 16.8553 89.908 17.1396 89.7266 17.4239C89.6015 17.6192 89.4833 17.6192 89.3593 17.4239C88.7533 16.475 88.1484 15.5262 87.5436 14.5773C87.524 14.5473 87.5034 14.5184 87.4506 14.4421V14.6929C87.4506 15.9677 87.4471 17.2436 87.454 18.5183C87.454 18.679 87.4127 18.7206 87.2555 18.716C86.786 18.7056 86.3166 18.7079 85.8483 18.7148C85.7232 18.7171 85.6738 18.6917 85.6738 18.5507C85.6784 16.1976 85.6784 13.8446 85.6738 11.4916C85.6738 11.3517 85.722 11.324 85.8483 11.3263C86.3304 11.3332 86.8124 11.3332 87.2933 11.3263C87.4116 11.324 87.4735 11.3679 87.5344 11.4627C88.1622 12.4508 88.7935 13.4355 89.4248 14.4213C89.458 14.4745 89.4936 14.5253 89.5292 14.5796C89.6061 14.5461 89.6268 14.4745 89.6623 14.4178C90.2902 13.4378 90.9203 12.4589 91.5424 11.4754C91.6136 11.3633 91.687 11.3251 91.8156 11.3263C92.2908 11.3332 92.7671 11.3321 93.2423 11.3263C93.3582 11.3251 93.4098 11.346 93.4087 11.48C93.4052 13.8458 93.4052 16.2115 93.4087 18.5773C93.4087 18.6882 93.3731 18.716 93.2675 18.7148C92.7797 18.7102 92.2908 18.7044 91.803 18.7171C91.6434 18.7217 91.6354 18.6559 91.6354 18.5287C91.6388 17.2343 91.6377 15.9399 91.6377 14.6455V14.4964L91.6009 14.4837Z" fill="white"/>
<path d="M111.719 15.01C111.727 13.2151 112.987 11.6619 114.771 11.2955C116.376 10.9661 117.792 11.351 118.875 12.6223C120.601 14.6482 119.681 17.7548 117.122 18.6308C115.392 19.2225 113.473 18.6528 112.437 17.2393C111.959 16.5864 111.716 15.8328 111.72 15.0088L111.719 15.01ZM117.976 15.0308C117.98 13.7549 117.034 12.8268 115.729 12.8291C114.436 12.8314 113.483 13.7572 113.481 15.0157C113.478 16.2789 114.424 17.2104 115.715 17.2162C117.027 17.222 117.973 16.3078 117.978 15.0308H117.976Z" fill="white"/>
<path d="M82.5907 18.7135C81.9927 18.7135 81.3936 18.7135 80.7944 18.7135C80.6923 18.7135 80.6762 18.6303 80.6395 18.5691C80.2125 17.8618 79.7844 17.1545 79.3643 16.4426C79.2977 16.3293 79.2254 16.2808 79.0946 16.29C78.9305 16.3016 78.764 16.3016 78.601 16.29C78.4668 16.2808 78.4312 16.3258 78.4323 16.4599C78.4392 17.1487 78.4323 17.8363 78.4392 18.5252C78.4404 18.6719 78.4082 18.7205 78.2544 18.717C77.7724 18.7066 77.2914 18.7089 76.8094 18.7159C76.6923 18.717 76.6602 18.6812 76.6602 18.5645C76.6636 16.2056 76.6636 13.8468 76.6602 11.488C76.6602 11.3655 76.69 11.325 76.8185 11.3262C77.8206 11.332 78.8214 11.3193 79.8234 11.3331C81.1135 11.3516 82.158 12.245 82.3784 13.4955C82.5425 14.4247 82.0547 15.4001 81.1537 15.9063C80.9953 15.9953 81.0079 16.0485 81.0894 16.1802C81.5795 16.9753 82.0616 17.7762 82.5459 18.576C82.5678 18.6118 82.6056 18.6442 82.5942 18.7112L82.5907 18.7135ZM78.4335 13.8537C78.4335 14.1277 78.4381 14.4016 78.4312 14.6755C78.4277 14.7864 78.4656 14.8141 78.5712 14.813C78.9511 14.8072 79.331 14.813 79.7121 14.8107C80.2389 14.8072 80.6269 14.4154 80.6372 13.8769C80.6475 13.3452 80.2665 12.9338 79.7362 12.9211C79.3494 12.9118 78.9626 12.9234 78.5769 12.9153C78.4553 12.913 78.4277 12.9569 78.4312 13.0702C78.4381 13.3314 78.4335 13.5926 78.4335 13.8537Z" fill="white"/>
<path d="M68.6304 15.0202C68.6304 13.8599 68.6338 12.6995 68.627 11.5404C68.627 11.382 68.6511 11.3231 68.8301 11.3242C70.3004 11.3335 71.7707 11.3312 73.241 11.3254C73.396 11.3254 73.4465 11.3601 73.4419 11.523C73.4304 11.9437 73.4315 12.3644 73.4419 12.7851C73.4453 12.933 73.396 12.9654 73.2571 12.9642C72.3698 12.9584 71.4826 12.9654 70.5954 12.9573C70.4324 12.9561 70.3934 13.0035 70.4003 13.1595C70.4129 13.4461 70.4106 13.7328 70.4003 14.0194C70.3957 14.1488 70.4427 14.1777 70.5632 14.1765C71.3621 14.1719 72.161 14.1789 72.9587 14.1708C73.1159 14.1696 73.163 14.2112 73.1584 14.3707C73.1469 14.7845 73.1492 15.1994 73.1584 15.6131C73.1607 15.746 73.1239 15.7865 72.9896 15.7853C72.1977 15.7795 71.4057 15.7853 70.6126 15.7784C70.4554 15.7772 70.3888 15.8038 70.398 15.9829C70.4152 16.2938 70.4094 16.607 70.3991 16.9191C70.3945 17.0543 70.4393 17.089 70.5701 17.0878C71.47 17.082 72.3698 17.0913 73.2697 17.0797C73.4602 17.0774 73.4981 17.134 73.4924 17.3132C73.4786 17.7269 73.4855 18.1418 73.4901 18.5556C73.4901 18.6596 73.482 18.7127 73.3512 18.7127C71.8235 18.7081 70.2958 18.707 68.7693 18.7127C68.6201 18.7127 68.6281 18.6376 68.6281 18.5359C68.6292 17.3629 68.6281 16.1898 68.6281 15.0179L68.6304 15.0202Z" fill="white"/>
<path d="M96.898 15.0268C96.898 13.8607 96.9014 12.6934 96.8945 11.5273C96.8945 11.3689 96.9336 11.3262 97.092 11.3262C98.5691 11.332 100.045 11.332 101.522 11.3262C101.677 11.3262 101.713 11.3724 101.709 11.5192C101.7 11.9329 101.699 12.3478 101.709 12.7616C101.713 12.9176 101.673 12.9673 101.511 12.9661C100.629 12.958 99.7491 12.9661 98.8676 12.958C98.7126 12.9569 98.6587 12.9916 98.6667 13.1545C98.6816 13.4342 98.6782 13.715 98.6667 13.9959C98.661 14.1357 98.6977 14.1796 98.8435 14.1785C99.6297 14.1704 100.416 14.1819 101.201 14.1704C101.392 14.1669 101.432 14.2259 101.426 14.405C101.412 14.8003 101.413 15.1955 101.426 15.5908C101.432 15.756 101.377 15.7884 101.223 15.7872C100.431 15.7791 99.6377 15.7872 98.8457 15.7803C98.7034 15.7791 98.661 15.8173 98.6667 15.9606C98.6782 16.2657 98.6793 16.5731 98.6667 16.8782C98.6598 17.0412 98.6977 17.0944 98.8722 17.092C99.7663 17.0816 100.659 17.092 101.553 17.0828C101.72 17.0816 101.767 17.1209 101.761 17.2908C101.747 17.7115 101.753 18.1322 101.759 18.5529C101.761 18.6707 101.737 18.7158 101.606 18.7158C100.091 18.7112 98.576 18.7112 97.0621 18.7158C96.9267 18.7158 96.8945 18.6765 96.8945 18.5448C96.8991 17.3717 96.8968 16.1987 96.8968 15.0256L96.898 15.0268Z" fill="white"/>
<path d="M61.8863 15.8331C61.8863 14.934 61.8829 14.0348 61.8897 13.1368C61.8909 12.9912 61.8507 12.9566 61.7107 12.9589C61.1724 12.967 60.6329 12.9589 60.0946 12.9658C59.9534 12.9681 59.8961 12.9415 59.9006 12.7809C59.9133 12.3475 59.9087 11.9141 59.9029 11.4807C59.9018 11.3686 59.9259 11.327 60.0487 11.3281C61.8679 11.3328 63.6872 11.3316 65.5064 11.3281C65.6131 11.3281 65.6487 11.3582 65.6476 11.468C65.6418 11.9141 65.6407 12.3602 65.6476 12.8063C65.6499 12.9369 65.6051 12.9658 65.4834 12.9646C64.9577 12.9589 64.4309 12.96 63.9052 12.9623C63.624 12.9635 63.6585 12.923 63.6585 13.2212C63.6585 14.9802 63.655 16.7404 63.6619 18.4994C63.6619 18.6785 63.6114 18.7201 63.4415 18.7155C62.9859 18.7039 62.529 18.7062 62.0722 18.7155C61.9276 18.719 61.8817 18.6854 61.8829 18.5294C61.8909 17.6303 61.8863 16.7323 61.8863 15.8331Z" fill="white"/>
<path d="M104.964 15.0085C104.964 13.8481 104.968 12.6878 104.961 11.5274C104.961 11.3703 104.999 11.3229 105.158 11.3263C105.628 11.3367 106.097 11.3367 106.566 11.3263C106.714 11.3229 106.741 11.3714 106.741 11.5101C106.737 13.2957 106.741 15.0813 106.733 16.8657C106.733 17.0552 106.786 17.0945 106.965 17.0922C107.751 17.0818 108.537 17.0911 109.324 17.0853C109.457 17.0853 109.496 17.1223 109.494 17.2563C109.485 17.6967 109.488 18.1358 109.494 18.5762C109.495 18.6836 109.464 18.7172 109.356 18.716C107.942 18.7125 106.528 18.7114 105.115 18.7172C104.955 18.7172 104.966 18.6363 104.966 18.5288C104.967 17.3557 104.966 16.1827 104.966 15.0096L104.964 15.0085Z" fill="white"/>
<path d="M14.2337 30C13.9003 29.9642 13.5656 29.9295 13.2321 29.8914C11.1724 29.6556 9.23953 29.0246 7.46247 27.9636C3.80335 25.7793 1.44126 22.6138 0.413104 18.4729C-0.0150043 16.7497 -0.100396 15 0.110773 13.2352C0.850443 7.07636 5.23077 2.04899 11.2462 0.476061C13.0579 0.00221686 14.8984 -0.112199 16.762 0.107387C23.1144 0.857447 28.3463 5.56468 29.641 11.824C30.6807 16.8537 29.4587 21.3356 26.0165 25.1529C23.6971 27.7256 20.7731 29.2511 17.3528 29.8116C16.8751 29.8902 16.3939 29.9445 15.9104 29.9665C15.8608 29.9688 15.8077 29.9596 15.765 29.9977H14.2349L14.2337 30ZM14.9607 18.741C15.0242 18.8589 15.0692 18.9409 15.1142 19.023C15.8377 20.3683 16.5497 21.7193 17.287 23.0565C18.0798 24.4942 20.1765 24.5231 20.9912 23.1004C21.747 21.7805 22.4636 20.4399 23.1963 19.1074C24.1772 17.3229 25.1499 15.5339 26.1412 13.7552C26.6708 12.8041 26.8878 11.8183 26.6304 10.7434C26.2669 9.22715 25.0034 7.90501 23.1721 7.712C21.6524 7.55251 20.0565 8.30604 19.2718 9.77611C18.876 10.5169 18.4721 11.2543 18.0821 11.9974C17.9967 12.1604 17.9425 12.1465 17.8363 12.0217C17.6136 11.7593 17.3632 11.5212 17.1024 11.297C15.9646 10.3181 14.6042 10.1737 13.3556 10.9076C12.8559 11.2011 12.4509 11.6091 12.0678 12.0379C11.9663 12.1523 11.9224 12.1557 11.8463 12.0113C11.4608 11.2797 11.0639 10.5539 10.675 9.8235C9.88573 8.34071 8.31523 7.52131 6.6501 7.72703C3.90259 8.06681 2.34594 11.0601 3.65104 13.5033C4.06761 14.2834 4.50264 15.0543 4.92844 15.8298C6.23238 18.2059 7.53748 20.5821 8.83911 22.9594C9.25799 23.7245 9.90073 24.1417 10.7708 24.1394C11.6397 24.1371 12.2859 23.7245 12.6979 22.9513C13.044 22.2995 13.3937 21.65 13.7433 20.9993C14.1414 20.2596 14.5407 19.5211 14.9607 18.741Z" fill="white"/>
<path d="M14.9613 18.7414C14.5413 19.5215 14.142 20.2601 13.7439 20.9997C13.3942 21.6492 13.0446 22.2999 12.6984 22.9517C12.2876 23.7237 11.6403 24.1363 10.7714 24.1398C9.9013 24.1421 9.25856 23.726 8.83968 22.9598C7.53804 20.5825 6.23295 18.2063 4.929 15.8302C4.5032 15.0547 4.06817 14.285 3.6516 13.5037C2.34766 11.0605 3.90316 8.06724 6.65067 7.72746C8.31579 7.52174 9.8863 8.34115 10.6756 9.82393C11.0645 10.5543 11.4626 11.279 11.8468 12.0117C11.923 12.155 11.9668 12.1515 12.0684 12.0383C12.4515 11.6095 12.8565 11.2027 13.3562 10.908C14.6047 10.1741 15.9652 10.3186 17.103 11.2975C17.3649 11.5228 17.6142 11.7598 17.8369 12.0221C17.943 12.1469 17.9961 12.1608 18.0827 11.9978C18.4727 11.2536 18.8766 10.5174 19.2724 9.77655C20.0571 8.30647 21.6529 7.55295 23.1727 7.71243C25.004 7.90544 26.2664 9.22758 26.631 10.7439C26.8895 11.8187 26.6725 12.8057 26.1417 13.7557C25.1505 15.5343 24.1777 17.3234 23.1969 19.1078C22.4642 20.4403 21.7464 21.7821 20.9917 23.1008C20.1771 24.5235 18.0804 24.4958 17.2876 23.0569C16.5503 21.7197 15.8383 20.3687 15.1148 19.0234C15.0709 18.9414 15.0259 18.8593 14.9613 18.7414ZM24.1224 16.393C23.7462 16.586 23.3608 16.7432 22.9303 16.7617C22.2876 16.7906 21.7152 16.5837 21.1844 16.2428C20.2971 15.6719 19.6243 14.8825 18.9816 14.0619C18.6885 13.6863 18.4127 13.2969 18.0804 12.9421C17.1388 14.693 16.2052 16.4323 15.2671 18.1705C15.2198 18.2583 15.2394 18.3219 15.2809 18.3994C15.4782 18.7622 15.6733 19.1274 15.8683 19.4915C16.4579 20.5906 17.043 21.6908 17.6396 22.7864C17.9696 23.3909 18.4854 23.7076 19.1812 23.6972C19.8701 23.6868 20.3594 23.3481 20.6859 22.7541C21.3414 21.5614 21.998 20.3687 22.6522 19.1748C23.153 18.2607 23.6515 17.3442 24.1512 16.4288L24.1662 16.3838L24.1224 16.3953V16.393ZM5.80022 16.393L5.75637 16.3815L5.77022 16.4265C5.78061 16.4497 5.78868 16.4739 5.80138 16.4959C6.94031 18.5704 8.0827 20.6426 9.21701 22.7194C9.55396 23.3366 10.0478 23.6891 10.761 23.6937C11.4753 23.6983 11.9818 23.3516 12.313 22.7344C13.0838 21.3002 13.8512 19.8636 14.6243 18.4306C14.6855 18.3161 14.6867 18.2318 14.6243 18.1174C13.7185 16.4416 12.8173 14.7646 11.9207 13.0842C11.8422 12.9363 11.7961 12.9709 11.7176 13.0703C11.4591 13.402 11.1972 13.7303 10.9387 14.0619C10.3583 14.8085 9.74436 15.5239 8.97354 16.0821C8.43927 16.4693 7.85884 16.7409 7.18263 16.764C6.68183 16.7813 6.23295 16.6207 5.79907 16.3942L5.80022 16.393ZM22.553 8.13889C21.5433 8.16085 20.5417 8.65435 19.862 9.67947C19.2862 10.5474 18.8558 11.5055 18.355 12.4197C18.3146 12.4925 18.3388 12.5329 18.385 12.5861C18.9054 13.172 19.3462 13.8227 19.8574 14.4156C20.3663 15.0062 20.9063 15.5655 21.5918 15.9562C22.3695 16.3988 23.1554 16.4601 23.9366 15.9562C24.2112 15.7793 24.4478 15.5586 24.6612 15.3101C25.1401 14.7542 25.4298 14.0839 25.7921 13.4575C26.0506 13.0102 26.2283 12.5376 26.2779 12.0233C26.481 9.92563 24.8782 8.15276 22.5518 8.13774L22.553 8.13889ZM7.16417 8.13543C6.97031 8.14814 6.78106 8.15392 6.59067 8.18165C4.50782 8.48561 3.14387 10.6722 3.78084 12.6809C3.92739 13.1408 4.18356 13.5442 4.40627 13.9649C4.70745 14.5335 5.02132 15.0928 5.48289 15.554C6.3368 16.4069 7.34764 16.5398 8.38272 15.9238C9.03815 15.5343 9.56896 15.0015 10.0525 14.4248C10.5475 13.8343 11.0148 13.2217 11.5041 12.6277C11.5895 12.5237 11.5907 12.4578 11.5306 12.348C11.0922 11.5448 10.6779 10.7265 10.2209 9.93257C9.54589 8.76182 8.50619 8.18281 7.16417 8.13543ZM14.9544 17.7683C14.9832 17.7371 14.9878 17.7325 14.9913 17.7279C15.8971 16.0452 16.8018 14.3624 17.7088 12.6809C17.7492 12.6057 17.7376 12.5607 17.6811 12.4994C17.3903 12.1874 17.0972 11.8765 16.7718 11.598C15.7817 10.7508 14.5343 10.6526 13.4912 11.346C13.0031 11.6696 12.613 12.1007 12.2184 12.5248C12.1468 12.6011 12.2034 12.652 12.2345 12.7098C12.9627 14.0677 13.6931 15.4257 14.4224 16.7825C14.5966 17.1061 14.772 17.4285 14.9555 17.7683H14.9544Z" fill="#68A14B"/>
<path d="M5.80033 16.3922C6.23421 16.6188 6.68309 16.7794 7.1839 16.7621C7.8601 16.739 8.44053 16.4674 8.9748 16.0802C9.74678 15.5208 10.3595 14.8054 10.9399 14.06C11.1984 13.7283 11.4604 13.4001 11.7188 13.0684C11.7962 12.969 11.8423 12.9343 11.9219 13.0823C12.8185 14.7627 13.7198 16.4396 14.6256 18.1154C14.6879 18.2298 14.6868 18.3142 14.6256 18.4286C13.8525 19.8617 13.0851 21.2983 12.3143 22.7325C11.9819 23.3497 11.4765 23.6964 10.7622 23.6917C10.0491 23.6871 9.55638 23.3346 9.21828 22.7175C8.08396 20.6407 6.94157 18.5685 5.80264 16.4939C5.7911 16.472 5.78187 16.4477 5.77148 16.4246L5.80149 16.3911L5.80033 16.3922Z" fill="white"/>
<path d="M24.1499 16.4263C23.6503 17.3416 23.1518 18.2581 22.651 19.1722C21.9967 20.3661 21.3401 21.5588 20.6847 22.7515C20.3581 23.3455 19.8689 23.6842 19.18 23.6946C18.4841 23.705 17.9683 23.3883 17.6383 22.7839C17.0417 21.6894 16.4567 20.588 15.867 19.4889C15.6709 19.1249 15.477 18.7596 15.2797 18.3968C15.2381 18.3205 15.2185 18.2569 15.2658 18.1679C16.2028 16.4309 17.1375 14.6915 18.0791 12.9395C18.4103 13.2943 18.6861 13.6837 18.9803 14.0593C19.6219 14.8799 20.2958 15.6681 21.1832 16.2402C21.7128 16.5811 22.2863 16.788 22.9291 16.7591C23.3595 16.7395 23.7461 16.5834 24.1211 16.3904L24.1511 16.4251L24.1499 16.4263Z" fill="white"/>
<path d="M22.5516 8.13867C24.8779 8.15254 26.4807 9.92657 26.2777 12.0242C26.228 12.5385 26.0503 13.0112 25.7918 13.4584C25.4295 14.0848 25.1399 14.7552 24.661 15.3111C24.4475 15.5584 24.211 15.7791 23.9363 15.9571C23.1551 16.4598 22.3693 16.3997 21.5915 15.9571C20.9061 15.5665 20.3661 15.0071 19.8572 14.4165C19.346 13.8236 18.9052 13.173 18.3848 12.587C18.3374 12.5339 18.3144 12.4934 18.3548 12.4206C18.8556 11.5053 19.286 10.5483 19.8618 9.6804C20.5415 8.65528 21.5431 8.16179 22.5528 8.13983L22.5516 8.13867Z" fill="white"/>
<path d="M7.16407 8.13379C8.50609 8.18117 9.54578 8.76019 10.2208 9.93093C10.6778 10.7238 11.092 11.542 11.5305 12.3464C11.5905 12.4562 11.5894 12.5232 11.504 12.6261C11.0147 13.2201 10.5462 13.8338 10.0524 14.4232C9.56886 15.0011 9.03805 15.5327 8.38262 15.9222C7.34754 16.5382 6.3367 16.4041 5.48279 15.5523C5.02006 15.0912 4.70619 14.5318 4.40617 13.9632C4.18346 13.5425 3.92729 13.1392 3.78074 12.6792C3.14377 10.6706 4.50771 8.48397 6.59056 8.18002C6.78096 8.15228 6.97021 8.1465 7.16407 8.13379Z" fill="white"/>
<path d="M14.9529 17.7663C14.7694 17.4265 14.594 17.1041 14.4198 16.7805C13.6905 15.4225 12.9601 14.0657 12.2319 12.7077C12.2008 12.6511 12.1454 12.5991 12.2158 12.5228C12.6116 12.0986 13.0004 11.6676 13.4885 11.344C14.5329 10.6505 15.7803 10.7488 16.7692 11.5959C17.0946 11.8744 17.3865 12.1853 17.6785 12.4974C17.735 12.5586 17.7466 12.6037 17.7062 12.6788C16.7992 14.3604 15.8945 16.0431 14.9887 17.7258C14.9852 17.7316 14.9806 17.7351 14.9517 17.7663H14.9529Z" fill="white"/>
<path d="M5.76973 16.4259L5.75586 16.3809C5.77088 16.3843 5.78475 16.3889 5.79978 16.3924C5.78937 16.404 5.78013 16.4155 5.76973 16.4259Z" fill="white"/>
<path d="M24.1203 16.3924L24.1642 16.3809C24.1596 16.3959 24.155 16.4109 24.1492 16.4259L24.1191 16.3913L24.1203 16.3924Z" fill="white"/>
</svg>
