<svg width="24" height="24" viewBox="0 0 24 24" fill="none" xmlns="http://www.w3.org/2000/svg">
<g id="help-circle">
<path id="Vector" d="M12 22C17.5228 22 22 17.5228 22 12C22 6.47715 17.5228 2 12 2C6.47715 2 2 6.47715 2 12C2 17.5228 6.47715 22 12 22Z" stroke="#EC187B" stroke-linecap="round" stroke-linejoin="round"/>
<path id="Vector_2" d="M9.09003 8.99666C9.32513 8.32833 9.78918 7.76477 10.4 7.4058C11.0108 7.04682 11.7289 6.9156 12.4272 7.03538C13.1255 7.15515 13.7588 7.51819 14.2151 8.06019C14.6714 8.60219 14.9211 9.28819 14.92 9.99666C14.92 11.9967 11.92 12.9967 11.92 12.9967V14.4966" stroke="#EC187B" stroke-linecap="round" stroke-linejoin="round"/>
<path id="Vector_3" d="M12 17H12.01" stroke="#EC187B" stroke-linecap="round" stroke-linejoin="round"/>
</g>
</svg>
