<svg width="17" height="16" viewBox="0 0 17 16" fill="none" xmlns="http://www.w3.org/2000/svg">
<path d="M16.0249 10.6667C16.0249 11.1382 15.8376 11.5903 15.5042 11.9237C15.1708 12.2571 14.7186 12.4444 14.2471 12.4444H8.0249L5.0249 16V12.5L2.00268 12.4664C0.906849 12.4542 0.0249023 11.5624 0.0249023 10.4665V1.77778C0.0249023 1.30628 0.212203 0.854097 0.545601 0.520699C0.878999 0.187301 1.33118 0 1.80268 0H14.2471C14.7186 0 15.1708 0.187301 15.5042 0.520699C15.8376 0.854097 16.0249 1.30628 16.0249 1.77778V10.6667Z" fill="#9764D7"/>
<path d="M2.4 8V4.315H3.205L4.665 6.89V4.315H5.295V8H4.61L3.15 5.425H3.025V8H2.4ZM6.09629 8V4.315H8.61629V4.885H6.72129V5.785H8.45129V6.355H6.72129V7.43H8.61629V8H6.09629ZM9.76023 8L8.91523 4.315H9.58023L10.1702 7.405H10.2902L10.8802 4.315H11.4402L12.0302 7.405H12.1502L12.7402 4.315H13.4052L12.5552 8H11.6102L11.1602 5.675L10.7102 8H9.76023Z" fill="white"/>
</svg>
