<svg width="24" height="24" viewBox="0 0 24 24" fill="none" xmlns="http://www.w3.org/2000/svg">
<g id="Component 28">
<g id="Group 1000009336">
<path id="Vector" d="M17 20V18C17 16.9391 16.5786 15.9217 15.8284 15.1716C15.0783 14.4214 14.0609 14 13 14H6C4.93913 14 3.92172 14.4214 3.17157 15.1716C2.42143 15.9217 2 16.9391 2 18V20" stroke="white" stroke-linecap="round" stroke-linejoin="round"/>
<path id="Vector_2" d="M9.5 12C11.7091 12 13.5 10.2091 13.5 8C13.5 5.79086 11.7091 4 9.5 4C7.29086 4 5.5 5.79086 5.5 8C5.5 10.2091 7.29086 12 9.5 12Z" stroke="white" stroke-linecap="round" stroke-linejoin="round"/>
<g id="Group 1000009335">
<path id="Vector_3" d="M19 8V14" stroke="white" stroke-linecap="round" stroke-linejoin="round"/>
<path id="Vector_4" d="M22 11H16" stroke="white" stroke-linecap="round" stroke-linejoin="round"/>
</g>
</g>
</g>
</svg>
