<svg width="24" height="24" viewBox="0 0 24 24" fill="none" xmlns="http://www.w3.org/2000/svg">
<g id="Property 1=Account details, Property 2=ON">
<g id="Group 1000009255">
<rect id="Rectangle 41274" x="4" y="3" width="16" height="18" rx="4" fill="white"/>
<g id="Group 1000009254">
<path id="Vector" d="M15.5555 13.8V12.9C15.5555 12.4226 15.3558 11.9647 15.0001 11.6272C14.6445 11.2896 14.1622 11.1 13.6593 11.1H10.3407C9.83782 11.1 9.35549 11.2896 8.99987 11.6272C8.64425 11.9647 8.44446 12.4226 8.44446 12.9V13.8" stroke="#68A14B" stroke-linecap="round" stroke-linejoin="round"/>
<path id="Vector_2" d="M12 11.1C13.2273 11.1 14.2223 10.0926 14.2223 8.84998C14.2223 7.60733 13.2273 6.59998 12 6.59998C10.7728 6.59998 9.77783 7.60733 9.77783 8.84998C9.77783 10.0926 10.7728 11.1 12 11.1Z" stroke="#68A14B" stroke-linecap="round" stroke-linejoin="round"/>
</g>
<path id="Vector 234251059" d="M9.33337 16.5H14.4553" stroke="#68A14B" stroke-linecap="round" stroke-linejoin="round"/>
</g>
</g>
</svg>
