<svg width="24" height="24" viewBox="0 0 24 24" fill="none" xmlns="http://www.w3.org/2000/svg">
<g id="State=On, Icon Type=Market Place">
<g id="Group 1000007861">
<path id="Vector 234250666" d="M4.22266 19.1111V11.4075L6 12L9 10.5L12 12L14.5 10.5L15.5 11L18 12L19.4078 11.4075V19.1111C19.4078 19.6634 18.9601 20.1111 18.4078 20.1111H5.22266C4.67037 20.1111 4.22266 19.6634 4.22266 19.1111Z" fill="white"/>
<path id="Ellipse 732" d="M7.98403 11.0951C8.25916 10.82 8.47741 10.4934 8.62632 10.1339C8.72774 9.88903 8.79563 9.63221 8.82862 9.37037L2.92593 9C2.92593 9.3891 3.00257 9.77439 3.15148 10.1339C3.30038 10.4934 3.51863 10.82 3.79377 11.0951C4.0689 11.3703 4.39554 11.5885 4.75502 11.7374C5.1145 11.8863 5.49979 11.963 5.8889 11.963C6.278 11.963 6.66329 11.8863 7.02277 11.7374C7.38226 11.5885 7.70889 11.3703 7.98403 11.0951Z" fill="white" stroke="#68A14B"/>
<path id="Ellipse 733" d="M13.9101 11.0952C14.1852 10.8201 14.4035 10.4935 14.5524 10.134C14.6298 9.94716 14.6877 9.75335 14.7254 9.55567C14.7371 9.49428 14.7469 9.43252 14.7547 9.37048L8.87207 9.34424C8.90375 9.61516 8.97276 9.88097 9.07756 10.134C9.22646 10.4935 9.44471 10.8201 9.71985 11.0952C9.99499 11.3704 10.3216 11.5886 10.6811 11.7375C11.0406 11.8864 11.4259 11.9631 11.815 11.9631C12.2041 11.9631 12.5894 11.8864 12.9489 11.7375C13.3083 11.5886 13.635 11.3704 13.9101 11.0952Z" fill="white" stroke="#68A14B"/>
<path id="Ellipse 734" d="M19.8358 11.0952C20.1109 10.82 20.3292 10.4934 20.4781 10.1339C20.5849 9.87595 20.6546 9.60467 20.6854 9.32823C20.6896 9.29032 20.6931 9.25232 20.6958 9.21423H14.7862C14.8239 9.41192 14.9258 9.9471 15.0032 10.1339C15.1521 10.4934 15.3704 10.82 15.6455 11.0952C15.9206 11.3703 16.2473 11.5886 16.6068 11.7375C16.9662 11.8864 17.3515 11.963 17.7406 11.963C18.1297 11.963 18.515 11.8864 18.8745 11.7375C19.234 11.5886 19.5606 11.3703 19.8358 11.0952Z" fill="white" stroke="#68A14B"/>
<path id="Vector 234250665" d="M18.4467 4H5.22026C4.83648 4 4.48656 4.21964 4.31971 4.56525L2 9.37037H22L19.3222 4.51692C19.1463 4.19802 18.8109 4 18.4467 4Z" fill="white" stroke="white" stroke-linecap="round" stroke-linejoin="round"/>
</g>
</g>
</svg>
