<svg width="17" height="16" viewBox="0 0 17 16" fill="none" xmlns="http://www.w3.org/2000/svg">
<g id="Watermelon Approved">
<g id="Logo">
<path id="Vector" d="M8.10308 16C7.92494 15.9809 7.74619 15.9624 7.56806 15.9421C6.46781 15.8163 5.43537 15.4798 4.48614 14.9139C2.53159 13.749 1.26986 12.0607 0.720663 9.8522C0.491985 8.93318 0.446372 7.99997 0.55917 7.05876C0.954271 3.77406 3.29406 1.0928 6.50726 0.253899C7.47498 0.00118233 8.45811 -0.0598397 9.45357 0.057273C12.8468 0.457305 15.6414 2.96783 16.333 6.30616C16.8884 8.98865 16.2356 11.379 14.397 13.4149C13.158 14.787 11.5961 15.6006 9.76916 15.8995C9.51397 15.9414 9.25694 15.9704 8.99868 15.9821C8.97217 15.9834 8.94382 15.9784 8.92101 15.9988H8.10369L8.10308 16ZM8.4914 9.9952C8.5253 10.0581 8.54934 10.1018 8.57338 10.1456C8.95985 10.8631 9.34015 11.5836 9.73402 12.2968C10.1575 13.0636 11.2774 13.079 11.7126 12.3202C12.1163 11.6163 12.4991 10.9013 12.8905 10.1906C13.4144 9.2389 13.9341 8.28474 14.4635 7.33613C14.7464 6.82885 14.8623 6.30308 14.7249 5.72984C14.5307 4.92115 13.8558 4.216 12.8776 4.11307C12.0658 4.02801 11.2133 4.42989 10.7942 5.21393C10.5828 5.60903 10.367 6.00228 10.1587 6.39861C10.1131 6.48552 10.0841 6.47813 10.0274 6.41156C9.90846 6.27164 9.7747 6.14467 9.6354 6.02509C9.02765 5.50301 8.30093 5.42596 7.63401 5.81736C7.36711 5.97393 7.15076 6.19151 6.94612 6.42019C6.89188 6.48121 6.86846 6.48306 6.82778 6.40601C6.62191 6.01584 6.40987 5.62875 6.20215 5.2392C5.78055 4.44838 4.94165 4.01137 4.05221 4.12108C2.5846 4.3023 1.7531 5.89873 2.45023 7.20176C2.67275 7.61782 2.90512 8.02894 3.13257 8.44254C3.82908 9.70982 4.52621 10.9771 5.22149 12.245C5.44523 12.653 5.78856 12.8756 6.25331 12.8743C6.71745 12.8731 7.06262 12.653 7.28267 12.2407C7.46759 11.893 7.65435 11.5466 7.84111 11.1996C8.05376 10.8051 8.26703 10.4113 8.4914 9.9952Z" fill="#EC187B"/>
<path id="Vector_2" d="M8.49135 9.99491C8.26699 10.411 8.05372 10.8048 7.84107 11.1993C7.6543 11.5457 7.46754 11.8928 7.28262 12.2404C7.06319 12.6521 6.7174 12.8722 6.25326 12.874C5.78851 12.8753 5.44519 12.6534 5.22144 12.2447C4.52616 10.9768 3.82903 9.70953 3.13252 8.44225C2.90508 8.02865 2.6727 7.61814 2.45019 7.20147C1.75367 5.89844 2.58456 4.30201 4.05216 4.12079C4.9416 4.01107 5.7805 4.44809 6.20211 5.23891C6.40983 5.62846 6.62248 6.01493 6.82773 6.40572C6.86841 6.48215 6.89184 6.4803 6.94608 6.4199C7.15072 6.19122 7.36707 5.97425 7.63396 5.81707C8.30089 5.42567 9.0276 5.50272 9.63535 6.0248C9.77527 6.14499 9.90841 6.27135 10.0274 6.41127C10.0841 6.47784 10.1124 6.48523 10.1587 6.39832C10.367 6.00137 10.5827 5.60874 10.7942 5.21364C11.2133 4.4296 12.0658 4.02772 12.8775 4.11278C13.8557 4.21571 14.53 4.92086 14.7248 5.72955C14.8629 6.30278 14.747 6.82917 14.4635 7.33584C13.934 8.28445 13.4144 9.23861 12.8905 10.1903C12.4991 10.901 12.1157 11.6166 11.7126 12.3199C11.2774 13.0787 10.1574 13.0639 9.73398 12.2965C9.34011 11.5833 8.9598 10.8628 8.57333 10.1453C8.54991 10.1015 8.52587 10.0578 8.49135 9.99491ZM13.3848 8.74242C13.1839 8.84536 12.978 8.92919 12.7481 8.93905C12.4048 8.95446 12.099 8.84413 11.8155 8.66229C11.3415 8.3578 10.9822 7.93681 10.6388 7.49918C10.4823 7.29886 10.3349 7.09114 10.1574 6.90191C9.65446 7.83573 9.15581 8.76338 8.65469 9.69042C8.62942 9.73727 8.6399 9.77117 8.66209 9.81247C8.76749 10.006 8.87166 10.2008 8.97583 10.3949C9.2908 10.9811 9.6033 11.5679 9.92197 12.1523C10.0983 12.4746 10.3738 12.6435 10.7455 12.638C11.1134 12.6324 11.3748 12.4518 11.5492 12.135C11.8993 11.4989 12.25 10.8628 12.5995 10.2261C12.867 9.7385 13.1333 9.24971 13.4002 8.76153L13.4082 8.7375L13.3848 8.74366V8.74242ZM3.59789 8.74242L3.57447 8.73626L3.58186 8.7603C3.58741 8.77263 3.59173 8.78557 3.59851 8.79728C4.20688 9.90369 4.81709 11.0089 5.423 12.1165C5.60298 12.4456 5.86679 12.6336 6.24772 12.6361C6.62926 12.6386 6.89985 12.4537 7.07675 12.1245C7.4885 11.3596 7.89839 10.5934 8.31137 9.82911C8.34403 9.76808 8.34465 9.72309 8.31137 9.66207C7.82751 8.76831 7.34611 7.87394 6.86718 6.97772C6.82527 6.89882 6.80061 6.91732 6.7587 6.97032C6.62063 7.14723 6.48071 7.32228 6.34264 7.49918C6.0326 7.89736 5.70469 8.2789 5.29294 8.57662C5.00756 8.7831 4.69752 8.92796 4.33632 8.94028C4.06881 8.94953 3.82903 8.86385 3.59727 8.74304L3.59789 8.74242ZM12.5465 4.34022C12.0072 4.35193 11.4722 4.61513 11.1091 5.16186C10.8016 5.62476 10.5716 6.13574 10.3041 6.6233C10.2826 6.66213 10.2955 6.68371 10.3202 6.71206C10.5981 7.02457 10.8336 7.37159 11.1067 7.68779C11.3785 8.00277 11.667 8.3011 12.0331 8.50943C12.4485 8.74551 12.8683 8.77818 13.2856 8.50943C13.4323 8.41513 13.5586 8.2974 13.6727 8.16487C13.9285 7.86839 14.0832 7.51089 14.2767 7.17682C14.4148 6.93828 14.5097 6.68617 14.5362 6.41188C14.6447 5.29315 13.7885 4.34762 12.5459 4.33961L12.5465 4.34022ZM4.32645 4.33837C4.2229 4.34515 4.12181 4.34824 4.02011 4.36303C2.90754 4.52514 2.17898 5.69133 2.51922 6.7626C2.5975 7.00792 2.73434 7.22304 2.8533 7.4474C3.01418 7.75066 3.18183 8.04899 3.42838 8.29493C3.88451 8.74982 4.42446 8.8207 4.97735 8.49217C5.32746 8.28445 5.61099 8.0003 5.86926 7.69273C6.13369 7.37776 6.38332 7.05107 6.64467 6.73425C6.69028 6.67878 6.6909 6.64364 6.65885 6.58509C6.42462 6.1567 6.20334 5.7203 5.95925 5.29685C5.59867 4.67245 5.04331 4.36365 4.32645 4.33837ZM8.48765 9.47592C8.50306 9.45928 8.50553 9.45681 8.50738 9.45435C8.99124 8.5569 9.47448 7.65944 9.95896 6.7626C9.98053 6.72254 9.97437 6.6985 9.94416 6.66583C9.78883 6.49941 9.63227 6.3336 9.45845 6.18505C8.9296 5.73325 8.26329 5.68085 7.70608 6.05068C7.44535 6.22327 7.23701 6.45318 7.02621 6.67939C6.98799 6.72008 7.01819 6.74719 7.03484 6.77801C7.42377 7.50226 7.81395 8.22651 8.2035 8.95014C8.29657 9.12273 8.39026 9.2947 8.48827 9.47592H8.48765Z" fill="#FEFEFE"/>
<path id="Vector_3" d="M3.59793 8.74044C3.82969 8.86125 4.06946 8.94693 4.33697 8.93769C4.69817 8.92536 5.00821 8.78051 5.2936 8.57402C5.70596 8.27569 6.03326 7.89415 6.3433 7.49658C6.48137 7.31968 6.62128 7.14463 6.75935 6.96773C6.80065 6.91472 6.82531 6.89623 6.86784 6.97513C7.34677 7.87135 7.82816 8.76572 8.31202 9.65947C8.34531 9.72049 8.34469 9.76549 8.31202 9.82651C7.89905 10.5908 7.48915 11.357 7.07741 12.1219C6.89989 12.4511 6.62992 12.636 6.24837 12.6335C5.86745 12.631 5.60425 12.4431 5.42365 12.1139C4.81775 11.0063 4.20753 9.90109 3.59916 8.79468C3.593 8.78297 3.58807 8.77003 3.58252 8.7577L3.59855 8.73983L3.59793 8.74044Z" fill="#EC187B"/>
<path id="Vector_4" d="M13.4001 8.75807C13.1332 9.24624 12.867 9.73503 12.5995 10.2226C12.25 10.8593 11.8992 11.4954 11.5491 12.1315C11.3747 12.4483 11.1134 12.6289 10.7454 12.6345C10.3737 12.64 10.0982 12.4712 9.92189 12.1488C9.60322 11.5651 9.29071 10.9777 8.97574 10.3915C8.87096 10.1973 8.7674 10.0025 8.662 9.809C8.63981 9.76832 8.62933 9.73442 8.6546 9.68695C9.15511 8.76053 9.65438 7.83287 10.1573 6.89844C10.3342 7.08767 10.4816 7.29539 10.6387 7.49571C10.9814 7.93334 11.3414 8.35372 11.8154 8.65883C12.0983 8.84066 12.4047 8.95099 12.748 8.93558C12.9779 8.92511 13.1844 8.84189 13.3847 8.73896L13.4001 8.75807Z" fill="#EC187B"/>
<path id="Vector_5" d="M12.5468 4.33984C13.7895 4.34724 14.6456 5.29339 14.5371 6.41212C14.5106 6.68641 14.4157 6.93851 14.2776 7.17705C14.0841 7.51113 13.9294 7.86863 13.6736 8.16511C13.5595 8.29702 13.4332 8.41475 13.2865 8.50967C12.8692 8.7778 12.4494 8.74575 12.034 8.50967C11.6679 8.30134 11.3794 8.00301 11.1076 7.68803C10.8345 7.37183 10.5991 7.02481 10.3211 6.7123C10.2958 6.68395 10.2835 6.66237 10.305 6.62354C10.5726 6.13537 10.8025 5.625 11.11 5.1621C11.4731 4.61537 12.0081 4.35217 12.5474 4.34046L12.5468 4.33984Z" fill="#EC187B"/>
<path id="Vector_6" d="M4.32628 4.33594C5.04313 4.36121 5.59849 4.67002 5.95908 5.29441C6.20316 5.71725 6.42445 6.15365 6.65867 6.58265C6.69072 6.64121 6.69011 6.67696 6.64449 6.73182C6.38315 7.04864 6.1329 7.37594 5.86908 7.69029C5.61082 7.99848 5.32728 8.28202 4.97718 8.48974C4.42428 8.81827 3.88433 8.74677 3.42821 8.2925C3.18104 8.04656 3.01338 7.74823 2.85313 7.44497C2.73416 7.22061 2.59733 7.00549 2.51905 6.76017C2.1788 5.6889 2.90737 4.5227 4.01994 4.36059C4.12164 4.3458 4.22273 4.34272 4.32628 4.33594Z" fill="#EC187B"/>
<path id="Vector_7" d="M8.48712 9.47483C8.38912 9.29361 8.29543 9.12164 8.20235 8.94906C7.8128 8.22481 7.42263 7.50117 7.03369 6.77692C7.01705 6.74672 6.98746 6.71898 7.02506 6.6783C7.23648 6.45209 7.4442 6.22218 7.70493 6.04959C8.26276 5.67976 8.92907 5.73216 9.45731 6.18396C9.63113 6.33251 9.78707 6.49832 9.94302 6.66474C9.97322 6.69741 9.97938 6.72145 9.95781 6.76151C9.47333 7.65835 8.99009 8.5558 8.50623 9.45326C8.50438 9.45634 8.50192 9.45819 8.48651 9.47483H8.48712Z" fill="#EC187B"/>
<path id="Vector_8" d="M3.5821 8.76232L3.57471 8.73828C3.58272 8.74013 3.59012 8.74259 3.59813 8.74444C3.59258 8.75061 3.58765 8.75677 3.5821 8.76232Z" fill="#18A4EB"/>
<path id="Vector_9" d="M13.3844 8.74444L13.4078 8.73828C13.4054 8.74629 13.4029 8.75431 13.3998 8.76232L13.3838 8.74383L13.3844 8.74444Z" fill="#18A4EB"/>
</g>
<path id="Vector 234251042" d="M3.16419 8.25182L2.57558 7.17353C2.02605 6.16681 2.44453 4.90525 3.4868 4.42656V4.42656C4.43312 3.99195 5.55436 4.36494 6.05175 5.27982L9.77189 12.1225C9.86475 12.2933 9.97544 12.4586 10.136 12.5682C10.4905 12.8101 10.9124 12.8509 11.3258 12.5619C11.525 12.4227 11.6579 12.2116 11.7745 11.9984L13.8237 8.25182M3.16419 8.25182L5.34098 12.2396C5.46919 12.4745 5.68326 12.6506 5.9384 12.7313V12.7313C6.41392 12.8816 6.92906 12.6719 7.16446 12.2322L10.8892 5.2756C11.4018 4.31829 12.5842 3.94434 13.554 4.43284V4.43284C14.5649 4.94205 14.9528 6.18764 14.4096 7.18075L13.8237 8.25182M3.16419 8.25182C3.60583 8.65356 4.09219 8.99386 4.801 8.71384C5.23852 8.54099 5.56373 8.1757 5.87173 7.82013L7.06171 6.44634L7.12172 6.36651C7.83037 5.42365 9.2583 5.46451 9.91188 6.44634V6.44634L11.0718 7.8205C11.2629 8.04691 11.4655 8.26544 11.7014 8.44468C12.3073 8.90499 12.9271 9.09149 13.8237 8.25182" stroke="white" stroke-width="0.6"/>
</g>
</svg>
