<svg width="30" height="30" viewBox="0 0 30 30" fill="none" xmlns="http://www.w3.org/2000/svg">
<g id="Property 1=heart, Property 2=ON" clip-path="url(#clip0_828_1436)">
<g id="Vector" filter="url(#filter0_d_828_1436)">
<path d="M26.0497 5.76185C25.4112 5.12311 24.6532 4.61641 23.8189 4.27071C22.9845 3.925 22.0903 3.74707 21.1872 3.74707C20.284 3.74707 19.3898 3.925 18.5555 4.27071C17.7211 4.61641 16.9631 5.12311 16.3247 5.76185L14.9997 7.08685L13.6747 5.76185C12.385 4.47224 10.636 3.74774 8.81216 3.74774C6.98837 3.74774 5.23928 4.47224 3.94966 5.76185C2.66005 7.05147 1.93555 8.80056 1.93555 10.6244C1.93555 12.4481 2.66005 14.1972 3.94966 15.4869L5.27466 16.8119L14.9997 26.5369L24.7247 16.8119L26.0497 15.4869C26.6884 14.8484 27.1951 14.0904 27.5408 13.256C27.8865 12.4217 28.0644 11.5275 28.0644 10.6244C28.0644 9.72124 27.8865 8.82698 27.5408 7.99266C27.1951 7.15833 26.6884 6.4003 26.0497 5.76185Z" fill="white"/>
<path d="M26.0497 5.76185C25.4112 5.12311 24.6532 4.61641 23.8189 4.27071C22.9845 3.925 22.0903 3.74707 21.1872 3.74707C20.284 3.74707 19.3898 3.925 18.5555 4.27071C17.7211 4.61641 16.9631 5.12311 16.3247 5.76185L14.9997 7.08685L13.6747 5.76185C12.385 4.47224 10.636 3.74774 8.81216 3.74774C6.98837 3.74774 5.23928 4.47224 3.94966 5.76185C2.66005 7.05147 1.93555 8.80056 1.93555 10.6244C1.93555 12.4481 2.66005 14.1972 3.94966 15.4869L5.27466 16.8119L14.9997 26.5369L24.7247 16.8119L26.0497 15.4869C26.6884 14.8484 27.1951 14.0904 27.5408 13.256C27.8865 12.4217 28.0644 11.5275 28.0644 10.6244C28.0644 9.72124 27.8865 8.82698 27.5408 7.99266C27.1951 7.15833 26.6884 6.4003 26.0497 5.76185Z" stroke="#EC187B"/>
</g>
</g>
<defs>
<filter id="filter0_d_828_1436" x="-1.56445" y="0.24707" width="33.1289" height="29.9969" filterUnits="userSpaceOnUse" color-interpolation-filters="sRGB">
<feFlood flood-opacity="0" result="BackgroundImageFix"/>
<feColorMatrix in="SourceAlpha" type="matrix" values="0 0 0 0 0 0 0 0 0 0 0 0 0 0 0 0 0 0 127 0" result="hardAlpha"/>
<feOffset/>
<feGaussianBlur stdDeviation="1.5"/>
<feComposite in2="hardAlpha" operator="out"/>
<feColorMatrix type="matrix" values="0 0 0 0 0.92549 0 0 0 0 0.0941176 0 0 0 0 0.482353 0 0 0 0.4 0"/>
<feBlend mode="normal" in2="BackgroundImageFix" result="effect1_dropShadow_828_1436"/>
<feBlend mode="normal" in="SourceGraphic" in2="effect1_dropShadow_828_1436" result="shape"/>
</filter>
<clipPath id="clip0_828_1436">
<rect width="30" height="30" fill="white"/>
</clipPath>
</defs>
</svg>
