<svg width="20" height="20" viewBox="0 0 20 20" fill="none" xmlns="http://www.w3.org/2000/svg">
<path d="M4.45326 17.8417L4.74715 17.4372L4.45326 17.8417ZM3.49459 16.883L3.89909 16.5891L3.49459 16.883ZM17.4394 16.883L17.0349 16.5891L17.4394 16.883ZM16.4807 17.8417L16.1868 17.4372L16.4807 17.8417ZM16.4807 3.89686L16.1868 4.30137L16.4807 3.89686ZM17.4394 4.85553L17.0349 5.14943L17.4394 4.85553ZM4.45326 3.89686L4.74715 4.30137L4.45326 3.89686ZM3.49459 4.85553L3.89909 5.14943L3.49459 4.85553ZM12.567 3.93594C12.567 4.21208 12.7908 4.43594 13.067 4.43594C13.3431 4.43594 13.567 4.21208 13.567 3.93594H12.567ZM13.567 1.33594C13.567 1.0598 13.3431 0.835938 13.067 0.835938C12.7908 0.835938 12.567 1.0598 12.567 1.33594H13.567ZM7.36699 3.93594C7.36699 4.21208 7.59085 4.43594 7.86699 4.43594C8.14313 4.43594 8.36699 4.21208 8.36699 3.93594H7.36699ZM8.36699 1.33594C8.36699 1.0598 8.14313 0.835938 7.86699 0.835938C7.59085 0.835938 7.36699 1.0598 7.36699 1.33594H8.36699ZM18.2419 13.4693L18.7416 13.4864L18.2419 13.4693ZM13.067 18.6442L13.0499 18.1445L13.067 18.6442ZM2.69206 8.26927L2.19236 8.25215L2.69206 8.26927ZM18.2419 8.26927L18.7416 8.25215L18.2419 8.26927ZM10.467 18.1693C8.83097 18.1693 7.64412 18.1686 6.72247 18.0687C5.81019 17.9699 5.21725 17.7787 4.74715 17.4372L4.15936 18.2462C4.82835 18.7322 5.61739 18.9549 6.61476 19.0629C7.60277 19.17 8.85325 19.1693 10.467 19.1693V18.1693ZM2.16699 10.8693C2.16699 12.483 2.16631 13.7335 2.27335 14.7215C2.38141 15.7189 2.60403 16.5079 3.09008 17.1769L3.89909 16.5891C3.55754 16.119 3.36637 15.5261 3.26753 14.6138C3.16768 13.6921 3.16699 12.5053 3.16699 10.8693H2.16699ZM4.74715 17.4372C4.42172 17.2007 4.13553 16.9145 3.89909 16.5891L3.09008 17.1769C3.38819 17.5872 3.74904 17.9481 4.15936 18.2462L4.74715 17.4372ZM17.0349 16.5891C16.7985 16.9145 16.5123 17.2007 16.1868 17.4372L16.7746 18.2462C17.1849 17.9481 17.5458 17.5872 17.8439 17.1769L17.0349 16.5891ZM16.1868 4.30137C16.5123 4.53781 16.7985 4.824 17.0349 5.14943L17.8439 4.56164C17.5458 4.15132 17.1849 3.79047 16.7746 3.49236L16.1868 4.30137ZM4.15936 3.49236C3.74904 3.79047 3.38819 4.15132 3.09008 4.56164L3.89909 5.14943C4.13553 4.824 4.42172 4.53781 4.74715 4.30137L4.15936 3.49236ZM17.767 10.8693C17.767 11.8851 17.7669 12.7308 17.7422 13.4522L18.7416 13.4864C18.7671 12.7442 18.767 11.8796 18.767 10.8693H17.767ZM17.7422 13.4522C17.6871 15.0616 17.5081 15.9378 17.0349 16.5891L17.8439 17.1769C18.5099 16.2602 18.6861 15.1082 18.7416 13.4864L17.7422 13.4522ZM10.467 19.1693C11.4773 19.1693 12.342 19.1693 13.0841 19.1439L13.0499 18.1445C12.3285 18.1692 11.4828 18.1693 10.467 18.1693V19.1693ZM13.0841 19.1439C14.7059 19.0883 15.8579 18.9122 16.7746 18.2462L16.1868 17.4372C15.5355 17.9104 14.6593 18.0893 13.0499 18.1445L13.0841 19.1439ZM3.16699 10.8693C3.16699 9.85343 3.16705 9.00777 3.19177 8.28639L2.19236 8.25215C2.16693 8.9943 2.16699 9.85897 2.16699 10.8693H3.16699ZM3.19177 8.28639C3.24691 6.67694 3.42591 5.80071 3.89909 5.14943L3.09008 4.56164C2.42406 5.47834 2.24792 6.63035 2.19236 8.25215L3.19177 8.28639ZM2.69206 8.76927H18.2419V7.76927H2.69206V8.76927ZM18.767 10.8693C18.767 9.85897 18.7671 8.9943 18.7416 8.25215L17.7422 8.28639C17.7669 9.00777 17.767 9.85343 17.767 10.8693H18.767ZM18.7416 8.25215C18.6861 6.63035 18.5099 5.47834 17.8439 4.56164L17.0349 5.14943C17.5081 5.80071 17.6871 6.67694 17.7422 8.28639L18.7416 8.25215ZM13.567 3.93594V3.09434H12.567V3.93594H13.567ZM13.567 3.09434V1.33594H12.567V3.09434H13.567ZM10.467 3.56927C11.4828 3.56927 12.3285 3.56933 13.0499 3.59405L13.0841 2.59464C12.342 2.56921 11.4773 2.56927 10.467 2.56927V3.56927ZM13.0499 3.59405C14.6593 3.64919 15.5355 3.82818 16.1868 4.30137L16.7746 3.49236C15.8579 2.82634 14.7059 2.6502 13.0841 2.59464L13.0499 3.59405ZM8.36699 3.93594V3.09434H7.36699V3.93594H8.36699ZM8.36699 3.09434V1.33594H7.36699V3.09434H8.36699ZM10.467 2.56927C9.45669 2.56927 8.59202 2.56921 7.84987 2.59464L7.88411 3.59405C8.60549 3.56933 9.45116 3.56927 10.467 3.56927V2.56927ZM7.84987 2.59464C6.22807 2.6502 5.07606 2.82634 4.15936 3.49236L4.74715 4.30137C5.39844 3.82818 6.27466 3.64919 7.88411 3.59405L7.84987 2.59464Z" fill="#1C1919"/>
</svg>
