<svg width="24" height="24" viewBox="0 0 24 24" fill="none" xmlns="http://www.w3.org/2000/svg">
<path d="M22 12C22 12 18.3636 5 12 5C10.9598 5 9.99238 5.18705 9.10186 5.5C8.48878 5.77782 7.16218 6.40485 6.76038 6.69039C3.68213 8.76189 2 12 2 12C2 12 5.63636 19 12 19C14.0654 19 15.8435 18.2626 17.3032 17.2665C17.5458 17.2665 18.793 16.0888 19.3864 15.5C21.0909 13.75 22 12 22 12Z" fill="#EC187B" stroke="#EC187B" stroke-linecap="round" stroke-linejoin="round"/>
<path d="M9.27295 12C9.27295 13.4498 10.494 14.625 12.0002 14.625C12.7014 14.625 13.3408 14.3703 13.824 13.9518L10.0002 10.2153C9.54889 10.6837 9.27295 11.3108 9.27295 12Z" fill="white" stroke="white" stroke-linecap="round" stroke-linejoin="round"/>
<path d="M3.5 2.5L21.5 20.5" stroke="#EC187B" stroke-linecap="round" stroke-linejoin="round"/>
<path d="M7.22021 6.21997L18.0002 17" stroke="white" stroke-linecap="round" stroke-linejoin="round"/>
</svg>
