<svg width="15" height="15" viewBox="0 0 15 15" fill="none" xmlns="http://www.w3.org/2000/svg">
<g id="IR">
<rect id="Mask" x="0.5" y="0.5" width="14" height="14" fill="white" stroke="#F5F5F5"/>
<mask id="mask0_808_1650" style="mask-type:luminance" maskUnits="userSpaceOnUse" x="0" y="0" width="15" height="15">
<rect id="Mask_2" x="0.5" y="0.5" width="14" height="14" fill="white" stroke="white"/>
</mask>
<g mask="url(#mask0_808_1650)">
<path id="Rectangle 2" fill-rule="evenodd" clip-rule="evenodd" d="M0 5H15V0H0V5Z" fill="#38BB56"/>
<path id="Rectangle 2_2" fill-rule="evenodd" clip-rule="evenodd" d="M0 14.9941H15V9.99414H0V14.9941Z" fill="#DE1B27"/>
<path id="Rectangle 223" fill-rule="evenodd" clip-rule="evenodd" d="M1.07199 4.00977C0.874742 4.00977 0.714844 4.16966 0.714844 4.36691V4.65262C0.714844 4.84987 0.874742 5.00977 1.07199 5.00977C1.26923 5.00977 1.42913 4.84987 1.42913 4.65262V4.36691C1.42913 4.16966 1.26923 4.00977 1.07199 4.00977ZM2.50082 4.00977C2.30358 4.00977 2.14368 4.16966 2.14368 4.36691V4.65262C2.14368 4.84987 2.30358 5.00977 2.50082 5.00977C2.69806 5.00977 2.85796 4.84987 2.85796 4.65262V4.36691C2.85796 4.16966 2.69806 4.00977 2.50082 4.00977ZM3.57227 4.36691C3.57227 4.16966 3.73216 4.00977 3.92941 4.00977C4.12665 4.00977 4.28655 4.16966 4.28655 4.36691V4.65262C4.28655 4.84987 4.12665 5.00977 3.92941 5.00977C3.73216 5.00977 3.57227 4.84987 3.57227 4.65262V4.36691ZM5.35763 4.00977C5.16039 4.00977 5.00049 4.16966 5.00049 4.36691V4.65262C5.00049 4.84987 5.16039 5.00977 5.35763 5.00977C5.55488 5.00977 5.71477 4.84987 5.71477 4.65262V4.36691C5.71477 4.16966 5.55488 4.00977 5.35763 4.00977ZM6.42883 4.36691C6.42883 4.16966 6.58873 4.00977 6.78598 4.00977C6.98322 4.00977 7.14312 4.16966 7.14312 4.36691V4.65262C7.14312 4.84987 6.98322 5.00977 6.78598 5.00977C6.58873 5.00977 6.42883 4.84987 6.42883 4.65262V4.36691ZM8.21481 4.00977C8.01756 4.00977 7.85767 4.16966 7.85767 4.36691V4.65262C7.85767 4.84987 8.01756 5.00977 8.21481 5.00977C8.41205 5.00977 8.57195 4.84987 8.57195 4.65262V4.36691C8.57195 4.16966 8.41205 4.00977 8.21481 4.00977ZM9.28638 4.36691C9.28638 4.16966 9.44628 4.00977 9.64352 4.00977C9.84076 4.00977 10.0007 4.16966 10.0007 4.36691V4.65262C10.0007 4.84987 9.84076 5.00977 9.64352 5.00977C9.44628 5.00977 9.28638 4.84987 9.28638 4.65262V4.36691ZM11.0722 4.00977C10.875 4.00977 10.7151 4.16966 10.7151 4.36691V4.65262C10.7151 4.84987 10.875 5.00977 11.0722 5.00977C11.2695 5.00977 11.4294 4.84987 11.4294 4.65262V4.36691C11.4294 4.16966 11.2695 4.00977 11.0722 4.00977ZM12.1433 4.36691C12.1433 4.16966 12.3032 4.00977 12.5005 4.00977C12.6977 4.00977 12.8576 4.16966 12.8576 4.36691V4.65262C12.8576 4.84987 12.6977 5.00977 12.5005 5.00977C12.3032 5.00977 12.1433 4.84987 12.1433 4.65262V4.36691ZM13.9288 4.00977C13.7316 4.00977 13.5717 4.16966 13.5717 4.36691V4.65262C13.5717 4.84987 13.7316 5.00977 13.9288 5.00977C14.126 5.00977 14.2859 4.84987 14.2859 4.65262V4.36691C14.2859 4.16966 14.126 4.00977 13.9288 4.00977ZM0.714844 10.3747C0.714844 10.1775 0.874742 10.0176 1.07199 10.0176C1.26923 10.0176 1.42913 10.1775 1.42913 10.3747V10.6604C1.42913 10.8577 1.26923 11.0176 1.07199 11.0176C0.874742 11.0176 0.714844 10.8577 0.714844 10.6604V10.3747ZM2.50082 10.0176C2.30358 10.0176 2.14368 10.1775 2.14368 10.3747V10.6604C2.14368 10.8577 2.30358 11.0176 2.50082 11.0176C2.69806 11.0176 2.85796 10.8577 2.85796 10.6604V10.3747C2.85796 10.1775 2.69806 10.0176 2.50082 10.0176ZM3.57227 10.3747C3.57227 10.1775 3.73216 10.0176 3.92941 10.0176C4.12665 10.0176 4.28655 10.1775 4.28655 10.3747V10.6604C4.28655 10.8577 4.12665 11.0176 3.92941 11.0176C3.73216 11.0176 3.57227 10.8577 3.57227 10.6604V10.3747ZM5.35763 10.0176C5.16039 10.0176 5.00049 10.1775 5.00049 10.3747V10.6604C5.00049 10.8577 5.16039 11.0176 5.35763 11.0176C5.55488 11.0176 5.71477 10.8577 5.71477 10.6604V10.3747C5.71477 10.1775 5.55488 10.0176 5.35763 10.0176ZM6.42883 10.3747C6.42883 10.1775 6.58873 10.0176 6.78598 10.0176C6.98322 10.0176 7.14312 10.1775 7.14312 10.3747V10.6604C7.14312 10.8577 6.98322 11.0176 6.78598 11.0176C6.58873 11.0176 6.42883 10.8577 6.42883 10.6604V10.3747ZM8.21481 10.0176C8.01756 10.0176 7.85767 10.1775 7.85767 10.3747V10.6604C7.85767 10.8577 8.01756 11.0176 8.21481 11.0176C8.41205 11.0176 8.57195 10.8577 8.57195 10.6604V10.3747C8.57195 10.1775 8.41205 10.0176 8.21481 10.0176ZM9.28638 10.3747C9.28638 10.1775 9.44628 10.0176 9.64352 10.0176C9.84076 10.0176 10.0007 10.1775 10.0007 10.3747V10.6604C10.0007 10.8577 9.84076 11.0176 9.64352 11.0176C9.44628 11.0176 9.28638 10.8577 9.28638 10.6604V10.3747ZM11.0722 10.0176C10.875 10.0176 10.7151 10.1775 10.7151 10.3747V10.6604C10.7151 10.8577 10.875 11.0176 11.0722 11.0176C11.2695 11.0176 11.4294 10.8577 11.4294 10.6604V10.3747C11.4294 10.1775 11.2695 10.0176 11.0722 10.0176ZM12.1433 10.3747C12.1433 10.1775 12.3032 10.0176 12.5005 10.0176C12.6977 10.0176 12.8576 10.1775 12.8576 10.3747V10.6604C12.8576 10.8577 12.6977 11.0176 12.5005 11.0176C12.3032 11.0176 12.1433 10.8577 12.1433 10.6604V10.3747ZM13.9288 10.0176C13.7316 10.0176 13.5717 10.1775 13.5717 10.3747V10.6604C13.5717 10.8577 13.7316 11.0176 13.9288 11.0176C14.126 11.0176 14.2859 10.8577 14.2859 10.6604V10.3747C14.2859 10.1775 14.126 10.0176 13.9288 10.0176Z" fill="white" fill-opacity="0.5"/>
<g id="Oval 1">
<mask id="path-6-inside-1_808_1650" fill="white">
<path fill-rule="evenodd" clip-rule="evenodd" d="M6.49013 6C6.18899 6.31544 6 6.76999 6 7.2753C6 8.22782 6.67157 9 7.5 9C8.32843 9 9 8.22782 9 7.2753C9 6.77953 8.81807 6.33262 8.5268 6.01801"/>
</mask>
<path d="M5.52571 5.07931C4.97861 5.6524 4.66667 6.4406 4.66667 7.2753H7.33333C7.33333 7.09939 7.39938 6.97849 7.45455 6.92069L5.52571 5.07931ZM4.66667 7.2753C4.66667 8.78335 5.76651 10.3333 7.5 10.3333V7.66667C7.51946 7.66667 7.49677 7.67891 7.44541 7.61986C7.3917 7.5581 7.33333 7.44033 7.33333 7.2753H4.66667ZM7.5 10.3333C9.23349 10.3333 10.3333 8.78335 10.3333 7.2753H7.66667C7.66667 7.44033 7.6083 7.5581 7.55459 7.61986C7.50323 7.67891 7.48054 7.66667 7.5 7.66667V10.3333ZM10.3333 7.2753C10.3333 6.45607 10.0329 5.68221 9.50519 5.11218L7.54841 6.92384C7.6032 6.98303 7.66667 7.10298 7.66667 7.2753H10.3333Z" fill="#D80915" mask="url(#path-6-inside-1_808_1650)"/>
</g>
<rect id="Rectangle 243" x="7" y="7" width="1" height="2" fill="#D80915"/>
</g>
</g>
</svg>
