<svg width="15" height="15" viewBox="0 0 15 15" fill="none" xmlns="http://www.w3.org/2000/svg">
<g id="SY">
<rect id="Mask" x="0.5" y="0.5" width="14" height="14" fill="white" stroke="#F5F5F5"/>
<mask id="mask0_808_1692" style="mask-type:luminance" maskUnits="userSpaceOnUse" x="0" y="0" width="15" height="15">
<rect id="Mask_2" x="0.5" y="0.5" width="14" height="14" fill="white" stroke="white"/>
</mask>
<g mask="url(#mask0_808_1692)">
<path id="Rectangle 2" fill-rule="evenodd" clip-rule="evenodd" d="M0 14.9941H15V9.99414H0V14.9941Z" fill="#262626"/>
<path id="Rectangle 2_2" fill-rule="evenodd" clip-rule="evenodd" d="M0 5H15V0H0V5Z" fill="#E32139"/>
<path id="Star 33" fill-rule="evenodd" clip-rule="evenodd" d="M5.5 8.115L4.61832 8.71353L4.9151 7.69005L4.07342 7.03647L5.13851 7.00245L5.5 6L5.86149 7.00245L6.92658 7.03647L6.0849 7.69005L6.38168 8.71353L5.5 8.115Z" fill="#128A49"/>
<path id="Star 33_2" fill-rule="evenodd" clip-rule="evenodd" d="M9.5 8.115L8.61832 8.71353L8.9151 7.69005L8.07342 7.03647L9.13851 7.00245L9.5 6L9.86149 7.00245L10.9266 7.03647L10.0849 7.69005L10.3817 8.71353L9.5 8.115Z" fill="#128A49"/>
</g>
</g>
</svg>
