<svg width="989" height="488" viewBox="0 0 989 488" fill="none" xmlns="http://www.w3.org/2000/svg">
<path fill-rule="evenodd" clip-rule="evenodd" d="M464.828 0H468.022V41.3823L478.095 45.6993V146.814L486.694 149.382C489.151 150.119 490.625 152.085 490.625 154.296V257.349L499.224 258.962C501.927 259.453 503.893 261.664 503.893 264.121V347.01L510.034 347.903C512.983 348.394 514.948 350.606 514.948 353.063V408.589H537.798V449.62H547.626V391.391H547.381V356.257L566.922 361.039L568.019 306.38L569.351 361.634L582.515 364.856V388.688H637.795V449.62H651.801V398.516V388.688V330.213H656.715H676.441L677.844 271.983L679.247 330.213H683.812L685.215 271.983L686.385 330.213H698.237H701.677V333.898H698.237V336.601H701.677V340.286H698.237V342.989H701.677V346.674H698.237V349.377H701.677V353.062H698.237V355.765H701.677V359.451H698.237V362.153H701.677V365.838H698.237V368.787H701.677V372.473H698.237V375.175H701.677V378.86H698.237V381.563H701.677V385.248H698.237V388.688H713.225V365.593C713.225 342.252 726.738 320.876 748.113 310.803L757.695 306.38V406.132H766.113L769.242 288.199L786.932 147.171L769.734 266.824L769.979 252.328L764.574 138.817L766.321 138.412L767.277 118.916L768.395 137.93L788.375 133.288L789.144 117.442L790.068 133.31L808.361 135.56L808.8 126.532L809.333 135.68L829.705 138.186L830.665 121.864L831.476 138.403L834.843 138.817L830.911 273.949L820.007 406.132H820.251L829.683 312.032L829.192 329.967L832.4 406.132H847.618V301.221L904.193 278.553L905.356 220.633L906.727 277.538L921.818 271.492V302.695H925.75V309.329H921.818V313.751H925.75V320.385H921.818V324.807H925.75V331.441H921.818V335.864H925.75V342.497H921.818V347.165H925.75V353.799H921.818V358.222H925.75V364.855H921.818V449.62H924.766V383.037H968.991V449.62H988.401V485H71.4712V449.62H86.1782C84.0085 439.349 82.7123 428.708 82.3719 417.822C82.3311 416.516 82.304 415.206 82.2908 413.892C82.2846 413.272 82.2815 412.651 82.2815 412.029C82.2815 373.095 94.5885 337.18 115.139 308.799C113.86 307.834 113.191 306.852 113.239 305.889C113.341 303.849 116.66 302.148 122.159 300.944C135.617 285.01 151.932 271.932 170.239 262.674V224.81H175.399V260.19L175.399 260.19V301.526C188.136 303.853 196.698 307.443 196.53 310.803C196.366 314.246 187.886 316.704 175.399 317.521V449.62H184.491V421.119H208.078V367.493C207.309 367.241 206.849 366.922 206.849 366.575C206.849 366.228 207.309 365.909 208.078 365.658V352.506C207.309 352.254 206.849 351.935 206.849 351.588C206.849 351.216 207.377 350.877 208.247 350.617L212.5 332.424L217.01 350.7C217.726 350.947 218.151 351.255 218.151 351.588C218.151 351.896 217.788 352.182 217.168 352.419V365.744C217.788 365.981 218.151 366.267 218.151 366.575C218.151 366.884 217.788 367.17 217.168 367.406V421.119H229.698V388.353C228.925 388.094 228.47 387.777 228.47 387.46C228.47 387.037 228.925 386.705 229.698 386.464V373.365C228.925 373.107 228.47 372.79 228.47 372.472C228.47 372.026 228.975 371.682 229.826 371.438L234.12 353.308L238.44 371.546C239.276 371.81 239.771 372.141 239.771 372.472C239.771 372.754 239.412 373.037 238.788 373.277V386.655C239.412 386.896 239.771 387.178 239.771 387.46C239.771 387.742 239.412 388.024 238.788 388.265V413.059C245.55 408.78 255.009 406.062 265.522 405.895L266.552 389.425L267.787 405.898C279.005 406.112 289.007 409.231 295.789 414.047V388.353C295.016 388.094 294.561 387.777 294.561 387.46C294.561 387.037 295.016 386.705 295.789 386.464V373.365C295.016 373.107 294.561 372.79 294.561 372.472C294.561 372.026 295.067 371.682 295.918 371.438L300.212 353.308L304.793 371.635C305.47 371.883 305.863 372.177 305.863 372.472C305.863 372.754 305.503 373.037 304.88 373.277V386.655C305.503 386.896 305.863 387.178 305.863 387.46C305.863 387.742 305.503 388.024 304.88 388.265V406.132H317.165V367.468C316.392 367.21 315.936 366.893 315.936 366.575C315.936 366.258 316.392 365.941 317.165 365.682V352.481C316.392 352.223 315.936 351.905 315.936 351.588C315.936 351.249 316.456 350.91 317.329 350.643L321.588 332.424L325.847 350.643C326.719 350.91 327.238 351.249 327.238 351.588C327.238 351.87 326.879 352.152 326.256 352.393V365.771C326.879 366.011 327.238 366.293 327.238 366.575C327.238 366.857 326.879 367.139 326.256 367.38V406.132H347.631V370.998L354.55 374.123L355.002 343.48L355.383 374.501C368.531 380.649 377.963 392.423 381.488 406.132H406.844V408.589H420.357V394.585H431.659V312.523C431.659 310.803 433.133 309.574 434.607 309.574H444.926V255.768V203.926C444.926 202.206 446.154 200.978 447.874 200.978L457.457 200.978V94.5922C457.457 93.118 458.685 91.6439 460.405 91.6439H464.828V0ZM467.776 200.978L467.775 200.978V255.768V309.574H467.776L467.776 262.156V253.065V200.978ZM169.258 300.549V272.72C161.78 279.945 155.005 288.82 149.068 299.017C151.166 299.06 153.314 299.139 155.499 299.255C160.327 299.515 164.958 299.961 169.258 300.549ZM142.449 298.998C146.924 290.932 151.867 283.631 157.2 277.225C147.689 283.651 138.978 291.172 131.186 299.598C134.604 299.268 138.394 299.063 142.449 298.998Z" fill="url(#paint0_linear_139_2133)"/>
<path d="M833.01 387.803V309.993H783.501V452.545H833.01V393.628" fill="white"/>
<path d="M833.01 387.803V309.993H783.501V452.545H833.01V393.628" stroke="#1C1919" stroke-miterlimit="10"/>
<path d="M790.595 345.986V314.997H825.468V380.411H790.595V351.288" stroke="#263238" stroke-miterlimit="10"/>
<path d="M795.897 384.443H786.563V387.579H795.897V384.443Z" stroke="#263238" stroke-miterlimit="10"/>
<path d="M806.874 477.262H698V485.476H806.874V477.262Z" stroke="#263238" stroke-miterlimit="10"/>
<path d="M821.062 469.048H712.188V477.262H821.062V469.048Z" stroke="#263238" stroke-miterlimit="10"/>
<path d="M835.25 460.833H726.376V469.048H835.25V460.833Z" stroke="#263238" stroke-miterlimit="10"/>
<path d="M849.438 452.62H740.564V460.834H849.438V452.62Z" stroke="#263238" stroke-miterlimit="10"/>
<path d="M860.34 413.192H845.256L844.958 413.416L802.02 442.987V485.401C802.02 485.476 802.02 485.625 802.095 485.7H804.261C804.261 485.625 804.335 485.476 804.335 485.401V444.181L824.721 430.143V468.6C824.721 468.824 824.796 468.973 824.87 469.122H826.812C826.887 468.973 826.961 468.749 826.961 468.6V428.799C826.961 428.724 826.961 428.724 826.961 428.649L844.51 416.552V452.171C844.51 452.396 844.584 452.62 844.659 452.769H846.526C846.675 452.62 846.675 452.396 846.675 452.171V415.507H860.34C860.938 415.507 861.46 414.984 861.46 414.387C861.46 413.715 860.938 413.192 860.34 413.192Z" fill="#263238"/>
<path d="M701.883 485.7C701.883 485.625 701.958 485.476 701.958 485.401V444.181L722.344 430.143V468.6C722.344 468.824 722.418 468.973 722.493 469.122H724.435C724.509 468.973 724.584 468.749 724.584 468.6V428.799C724.584 428.724 724.584 428.649 724.584 428.649L742.132 416.552V452.172C742.132 452.396 742.207 452.62 742.282 452.769H744.148C744.298 452.62 744.298 452.396 744.298 452.172V415.507H757.963C758.56 415.507 759.083 414.984 759.083 414.387C759.083 413.789 758.56 413.267 757.963 413.267H742.879L742.58 413.491L699.643 443.061V485.401C699.643 485.476 699.643 485.625 699.718 485.7H701.883Z" fill="#263238"/>
<path d="M837.938 302.227H777.826C776.706 302.227 775.81 301.331 775.81 300.211V299.016C775.81 297.896 776.706 297 777.826 297H837.938C839.058 297 839.954 297.896 839.954 299.016V300.211C840.029 301.331 839.058 302.227 837.938 302.227Z" stroke="#263238" stroke-miterlimit="10"/>
<path fill-rule="evenodd" clip-rule="evenodd" d="M45.1471 300.926L43.9173 249.888L42.8741 301.837L0 319.015V323.489H-6.10449V329.439H0V333.406H-6.10449V339.356H0V343.322H-6.10449V349.272H0V353.239H-6.10449V359.188H0V363.375H-6.10449V369.325H0V373.292H-6.10449V379.241H0V457.03H58.682V379.241H62.2086V373.292H58.682V369.325H62.2086V363.375H58.682V359.188H62.2086V353.239H58.682V349.272H62.2086V343.322H58.682V339.356H62.2086V333.406H58.682V329.439H62.2086V323.489H58.682V295.503L45.1471 300.926ZM100.992 395.548H61.3262V457.03H100.992V395.548Z" fill="url(#paint1_linear_139_2133)"/>
<path d="M606.83 466.721L645.277 468.114L698.166 467.608L718.499 466.594C718.499 466.594 722.679 455.446 721.032 449.429C719.449 443.412 717.359 440.878 712.735 440.878C708.111 440.878 700.257 444.615 699.94 447.339C699.623 450.062 697.343 453.166 697.343 453.166H642.49C642.49 453.166 640.4 441.321 633.053 437.141C625.705 433.024 616.014 433.214 610.947 437.141C605.943 441.131 606.83 466.721 606.83 466.721Z" fill="white" stroke="#263238" stroke-miterlimit="10"/>
<path d="M709.694 466.341C709.694 463.11 709.314 460.133 708.554 457.473V447.402H700.003C694.683 447.402 690.312 455.889 690.312 466.341C690.312 476.792 694.619 485.279 700.003 485.279H708.554V475.208C709.251 472.548 709.694 469.571 709.694 466.341Z" fill="white" stroke="#263238" stroke-miterlimit="10"/>
<path d="M708.554 485.279C713.907 485.279 718.246 476.8 718.246 466.341C718.246 455.881 713.907 447.402 708.554 447.402C703.202 447.402 698.863 455.881 698.863 466.341C698.863 476.8 703.202 485.279 708.554 485.279Z" fill="white" stroke="#263238" stroke-miterlimit="10"/>
<path d="M709.314 479.515C712.638 479.515 715.332 473.673 715.332 466.467C715.332 459.261 712.638 453.419 709.314 453.419C705.991 453.419 703.297 459.261 703.297 466.467C703.297 473.673 705.991 479.515 709.314 479.515Z" fill="white" stroke="#263238" stroke-miterlimit="10"/>
<path d="M536.206 447.402H526.895C521.068 447.402 516.38 455.89 516.38 466.341C516.38 476.792 521.068 485.28 526.895 485.28H536.206C542.033 485.28 546.72 476.792 546.72 466.341C546.72 455.89 541.97 447.402 536.206 447.402Z" fill="white" stroke="#263238" stroke-miterlimit="10"/>
<path d="M626.592 463.301C626.592 459.563 626.148 456.08 625.262 452.976V441.195H615.317C609.11 441.195 604.043 451.076 604.043 463.237C604.043 475.399 609.11 485.28 615.317 485.28H625.262V473.562C626.085 470.521 626.592 466.974 626.592 463.301Z" fill="white" stroke="#263238" stroke-miterlimit="10"/>
<path d="M625.262 485.343C631.489 485.343 636.536 475.474 636.536 463.3C636.536 451.127 631.489 441.258 625.262 441.258C619.035 441.258 613.987 451.127 613.987 463.3C613.987 475.474 619.035 485.343 625.262 485.343Z" fill="white" stroke="#263238" stroke-miterlimit="10"/>
<path d="M626.148 478.565C630.031 478.565 633.179 471.759 633.179 463.364C633.179 454.968 630.031 448.162 626.148 448.162C622.265 448.162 619.117 454.968 619.117 463.364C619.117 471.759 622.265 478.565 626.148 478.565Z" fill="white" stroke="#263238" stroke-miterlimit="10"/>
<path d="M719.829 434.101C718.056 428.527 680.178 350.302 677.264 347.135C674.351 343.968 620.132 327.182 620.132 327.182C620.132 327.182 595.239 319.772 587.195 319.328C579.15 318.885 509.856 324.712 508.526 325.156C507.196 325.599 498.202 353.405 495.731 365.503C493.261 377.601 492.121 402.241 492.121 426.437C492.121 450.632 495.478 468.368 499.278 468.368C503.079 468.368 602.586 471.281 604.17 471.281C605.753 471.281 607.97 469.508 612.024 464.124C616.078 458.74 619.435 442.588 623.932 440.561C628.429 438.535 633.37 439.675 635.84 445.249C638.31 450.822 637.613 468.304 637.613 468.304C637.613 468.304 674.097 468.114 698.23 467.481C699.117 465.074 701.524 458.613 704.564 451.203C708.428 441.828 714.888 442.778 717.739 445.185C720.336 447.339 720.019 459.057 718.499 466.468C718.879 466.404 719.069 466.341 719.132 466.278C720.272 464.694 721.349 460.45 722.299 454.876C723.186 449.302 721.666 439.675 719.829 434.101Z" fill="white" stroke="#263238" stroke-miterlimit="10"/>
<path d="M637.614 468.368C637.614 468.368 674.098 468.178 698.231 467.544C699.118 465.137 701.524 458.677 704.565 451.266C708.429 441.891 714.889 442.841 717.74 445.248C720.337 447.402 720.02 459.12 718.5 466.531C718.88 466.467 719.07 466.404 719.133 466.341C720.273 464.757 721.35 460.513 722.3 454.939C723.187 449.366 721.603 439.674 719.83 434.101C718.056 428.527 680.179 350.301 677.265 347.134C674.352 343.967 620.132 327.182 620.132 327.182C620.132 327.182 595.24 319.772 587.195 319.328C587.132 319.328 587.069 319.328 587.069 319.328L587.385 320.722C587.385 320.722 594.1 333.643 592.833 470.965C599.61 471.155 603.981 471.281 604.297 471.281C605.881 471.281 608.098 469.508 612.151 464.124C616.205 458.74 619.562 442.588 624.059 440.561C628.557 438.534 633.497 439.674 635.967 445.248C638.248 450.886 637.614 468.368 637.614 468.368Z" fill="white" stroke="#263238" stroke-miterlimit="10"/>
<path d="M719.069 447.909C720.146 452.343 719.702 460.767 718.562 466.594C718.942 466.531 719.132 466.468 719.195 466.404C720.336 464.821 721.412 460.577 722.362 455.003C722.932 451.329 722.489 445.882 721.539 441.005C721.412 443.412 720.842 446.199 719.069 447.909Z" fill="white" stroke="#263238" stroke-miterlimit="10"/>
<path d="M623.299 441.005H492.565C493.578 457.473 496.302 468.431 499.279 468.431C503.079 468.431 602.586 471.345 604.17 471.345C605.753 471.345 607.97 469.571 612.024 464.187C615.888 458.993 619.118 444.109 623.299 441.005Z" fill="white" stroke="#263238" stroke-miterlimit="10"/>
<path d="M537.979 323.635V323.952C537.979 325.029 538.929 325.852 540.006 325.789L552.801 324.712C553.751 324.649 554.511 323.825 554.511 322.875V322.559C554.511 321.482 553.561 320.658 552.484 320.722L539.689 321.798C538.739 321.862 537.979 322.685 537.979 323.635Z" fill="white" stroke="#263238" stroke-miterlimit="10"/>
<path d="M587.321 320.785C587.321 320.785 588.948 382.553 588.948 390.851C588.948 399.149 591.122 460.45 591.122 460.45L623.932 460.767C623.932 460.767 626.719 441.385 626.719 421.179C626.719 400.974 623.615 352.582 621.905 338.394C620.195 324.205 617.914 313.501 617.914 313.501L587.321 320.785Z" fill="white" stroke="#263238" stroke-miterlimit="10"/>
<path d="M593.528 403.381L617.724 402.368C617.724 402.368 618.928 420.863 617.724 433.974C616.521 447.086 616.014 450.38 615.317 451.076C614.621 451.773 593.528 451.076 593.528 451.076C593.528 451.076 592.135 449.683 592.135 447.466C592.135 445.249 591.628 406.485 591.628 405.281C591.628 404.078 592.325 403.888 593.528 403.381Z" fill="white" stroke="#263238" stroke-miterlimit="10"/>
<path d="M590.425 331.49L591.121 339.28L615.127 335.67C615.127 335.67 614.937 333.58 613.417 330.286C611.834 326.992 609.807 325.979 609.807 325.979L592.198 329.969" stroke="#263238" stroke-miterlimit="10"/>
<path d="M613.924 342.701C613.924 342.701 614.937 339.597 617.217 362.209C619.434 384.822 619.624 393.309 618.611 394.006C617.597 394.703 595.428 395.906 595.428 395.906" stroke="#263238" stroke-miterlimit="10"/>
<path d="M613.607 347.198L596.315 349.985C596.315 349.985 594.605 350.491 594.922 352.392C595.239 354.292 597.519 378.805 597.012 391.473" stroke="#263238" stroke-miterlimit="10"/>
<path d="M485.026 371.267V432.454" stroke="#263238" stroke-miterlimit="10"/>
<path d="M487.687 364.237L487.814 356.382C487.814 356.382 482.303 328.259 481.923 327.753C481.543 327.246 436.698 326.866 436.192 327.119C435.685 327.373 436.065 330.096 436.065 330.096C436.065 330.096 436.572 339.091 436.952 368.037C437.332 396.92 436.825 456.017 436.825 456.017L486.864 456.397C486.864 456.397 486.357 452.469 487.117 439.548C487.877 426.627 488.004 367.277 488.004 366.707C488.004 366.2 488.004 364.997 488.004 364.997L487.687 364.237Z" fill="white" stroke="#263238" stroke-miterlimit="10"/>
<path d="M438.535 329.146C438.535 329.146 476.856 329.716 477.869 329.969C478.883 330.223 479.58 332.25 479.96 333.39C480.276 334.53 485.154 355.559 485.47 358.726" stroke="#263238" stroke-miterlimit="10"/>
<path d="M441.576 405.281L441.005 447.275L482.05 447.845C482.05 447.845 483 406.231 482.873 405.661C482.747 405.091 482.747 404.521 480.466 404.267C478.186 404.014 443.919 403.697 443.286 403.697C442.716 403.697 441.766 404.394 441.576 405.281Z" fill="white" stroke="#263238" stroke-miterlimit="10"/>
<path d="M444.996 337.57C444.996 337.57 441.195 342.89 440.879 344.157C440.562 345.424 440.879 346.374 441.829 346.437C442.779 346.564 477.489 346.437 477.489 346.437C477.489 346.437 478.756 346.184 478.63 344.221" stroke="#263238" stroke-miterlimit="10"/>
<path d="M447.276 337.19H475.779C475.779 337.19 476.729 337.19 477.299 339.597" stroke="#263238" stroke-miterlimit="10"/>
<path d="M454.18 354.229C454.18 354.229 475.779 354.799 477.172 355.052C478.566 355.305 479.833 356.762 480.149 357.902C480.466 359.042 480.466 392.866 480.466 392.866" stroke="#263238" stroke-miterlimit="10"/>
<path d="M451.203 351.695C451.203 351.695 446.579 351.568 444.552 352.835C442.462 354.102 442.842 357.459 442.968 358.726C443.095 359.992 443.412 394.006 443.412 394.006C443.412 394.006 443.412 395.4 445.249 395.526C447.086 395.653 477.806 395.653 477.806 395.653C477.806 395.653 479.072 395.653 479.769 394.64" stroke="#263238" stroke-miterlimit="10"/>
<path d="M496.555 364.68H486.484V368.227H496.555V364.68Z" fill="white" stroke="#263238" stroke-miterlimit="10"/>
<path d="M495.668 434.861H485.597V438.408H495.668V434.861Z" fill="white" stroke="#263238" stroke-miterlimit="10"/>
<path d="M587.258 325.662L510.996 331.426C510.996 331.426 504.409 364.616 504.409 365.186C504.409 365.756 502.255 419.026 503.079 432.01C503.839 444.932 504.029 455.763 504.029 455.763L590.488 458.296L587.258 325.662Z" fill="white" stroke="#263238" stroke-miterlimit="10"/>
<path d="M562.366 457.473V416.556H545.454V457.03L562.366 457.473Z" fill="white" stroke="#263238" stroke-miterlimit="10"/>
<path d="M510.997 456.017L545.454 457.03V416.556H510.997V456.017Z" fill="white" stroke="#263238" stroke-miterlimit="10"/>
<path d="M524.973 421.974H531.889V416.787H524.973V421.974Z" fill="white" stroke="#263238" stroke-miterlimit="10"/>
<path d="M580.734 458.043H590.552L590.425 452.342L589.538 416.555H548.114V457.093L580.734 458.043Z" fill="white" stroke="#263238" stroke-miterlimit="10"/>
<path d="M580.734 458.043H582.571V416.555H548.114V457.093L580.734 458.043Z" fill="white" stroke="#263238" stroke-miterlimit="10"/>
<path d="M561.763 422.756H568.984V416.549H561.763V422.756Z" fill="white" stroke="#263238" stroke-miterlimit="10"/>
<path d="M641.224 450.316C641.224 450.316 641.477 457.727 641.73 459.69C641.984 461.59 643.631 462.541 645.784 462.097C647.938 461.59 694.049 462.794 694.049 462.794C694.049 462.794 696.203 462.287 696.456 459.69C696.71 457.03 697.406 453.23 697.406 453.23L641.224 450.316Z" fill="white" stroke="#263238" stroke-miterlimit="10"/>
<path d="M684.168 379.501C684.168 379.501 687.652 407.751 689.235 411.235C690.882 414.719 692.086 416.112 693.986 416.809C695.823 417.569 706.4 420.673 707.667 420.799C708.934 420.926 709.504 420.293 709.187 418.836C708.807 417.316 694.366 384.505 693.162 382.542C691.896 380.578 687.842 378.931 686.322 378.425C684.801 377.855 684.168 379.501 684.168 379.501Z" fill="white" stroke="#263238" stroke-miterlimit="10"/>
<path d="M707.024 405.357C707.024 405.357 707.404 418.658 707.657 419.798C707.911 420.938 708.924 421.445 710.128 421.318C711.395 421.192 715.448 420.685 715.955 419.482C716.462 418.215 715.702 408.777 714.245 406.56C712.725 404.343 709.748 403.583 708.544 403.457C707.277 403.267 707.024 405.357 707.024 405.357Z" fill="white" stroke="#263238" stroke-miterlimit="10"/>
<path d="M707.658 419.798C707.912 420.938 708.925 421.445 710.128 421.318C711.395 421.192 715.449 420.685 715.956 419.481C716.462 418.215 715.702 408.777 714.246 406.56C713.612 405.61 712.725 404.976 711.839 404.47L712.092 405.166L712.979 417.328H707.468C707.531 418.595 707.595 419.545 707.658 419.798Z" fill="white" stroke="#263238" stroke-miterlimit="10"/>
<path d="M629.19 422.066L712.292 431.631" stroke="#263238" stroke-miterlimit="10"/>
<path d="M627.415 364.553L680.494 376.715" stroke="#263238" stroke-miterlimit="10"/>
<path d="M689.552 427.07C688.919 426.88 688.349 426.183 688.349 425.55V417.252C688.349 416.619 688.855 416.239 689.552 416.429C690.185 416.619 690.755 417.316 690.755 417.949V426.247C690.755 426.88 690.185 427.26 689.552 427.07Z" fill="white" stroke="#263238" stroke-miterlimit="10"/>
<path d="M680.305 426.12C679.671 425.93 679.101 425.233 679.101 424.6V416.302C679.101 415.669 679.608 415.289 680.305 415.479C680.938 415.669 681.508 416.366 681.508 416.999V425.297C681.508 425.93 681.002 426.31 680.305 426.12Z" fill="white" stroke="#263238" stroke-miterlimit="10"/>
<path d="M519.378 416.843H563.906V384.539H519.378V416.843Z" fill="white" stroke="#263238" stroke-miterlimit="10"/>
<path d="M519.372 416.843H546.228V384.539H519.372V416.843Z" fill="white" stroke="#263238" stroke-miterlimit="10"/>
<path d="M530.16 392.58H535.348V384.799H530.16V392.58Z" fill="white" stroke="#263238" stroke-miterlimit="10"/>
<path d="M587.955 352.329H557.298V384.632H588.715L587.955 352.329Z" fill="white" stroke="#263238" stroke-miterlimit="10"/>
<path d="M557.343 384.665H584.199V352.361H557.343V384.665Z" fill="white" stroke="#263238" stroke-miterlimit="10"/>
<path d="M568.199 358.864H573.386V351.948H568.199V358.864Z" fill="white" stroke="#263238" stroke-miterlimit="10"/>
<path d="M588.714 384.505H553.561V416.809H589.538L588.714 384.505Z" fill="white" stroke="#263238" stroke-miterlimit="10"/>
<path d="M553.609 416.844H580.466V384.54H553.609V416.844Z" fill="white" stroke="#263238" stroke-miterlimit="10"/>
<path d="M563.876 394.309H569.928V384.799H563.876V394.309Z" fill="white" stroke="#263238" stroke-miterlimit="10"/>
<path d="M406.331 296.19C405.115 282.252 406.26 254.143 407.69 243.087C409.121 232.03 421.781 228.345 425.5 240.875C429.22 253.406 425.643 286.407 424.141 295.419C421.674 310.362 407.976 314.55 406.331 296.19Z" fill="#FFDEA4"/>
<path d="M408.978 250.625C408.978 250.625 410.873 241.512 421.817 240.842C421.817 240.842 419.456 249.62 408.978 250.625Z" fill="#E7B96B"/>
<path d="M408.978 250.625C408.978 250.625 415.594 245.7 421.817 240.842C410.873 241.512 408.978 250.625 408.978 250.625Z" fill="#FFE7BC"/>
<path d="M408.906 264.696C408.906 264.696 411.302 255.248 424.105 254.243C424.105 254.243 421.459 262.653 408.906 264.696Z" fill="#E7B96B"/>
<path d="M408.906 264.696C408.906 264.696 417.775 258.867 424.105 254.243C411.302 255.248 408.906 264.696 408.906 264.696Z" fill="#FFE7BC"/>
<path d="M408.191 278.734C408.191 278.734 410.587 269.286 423.391 268.281C423.391 268.315 420.744 276.724 408.191 278.734Z" fill="#E7B96B"/>
<path d="M408.191 278.734C408.191 278.734 417.061 272.905 423.391 268.281C410.587 269.32 408.191 278.734 408.191 278.734Z" fill="#FFE7BC"/>
<path d="M406.331 296.19C405.115 282.252 406.26 254.143 407.69 243.087C409.121 232.03 421.781 228.345 425.5 240.875C429.22 253.406 425.643 286.407 424.141 295.419C421.674 310.362 407.976 314.55 406.331 296.19Z" stroke="#2F2C2D" stroke-width="0.5" stroke-miterlimit="10" stroke-linecap="round" stroke-linejoin="round"/>
<path d="M402.826 282.889C396.138 284.866 389.415 279.17 388.592 267.779C387.77 256.388 395.53 255.383 399.071 258.532C402.576 261.681 400.752 266.171 403.577 269.655C406.402 273.139 410.301 280.644 402.826 282.889Z" fill="#BABFFC"/>
<path d="M390.095 259.001C390.095 259.001 391.526 256.924 394.136 256.622C396.747 256.321 399.036 257.761 399.036 257.761L396.497 258.163L397.784 261.38L394.959 259.671L393.278 261.715L392.348 259.068L390.095 259.001Z" fill="#00887E"/>
<path d="M394.494 258.029C394.494 258.029 394.78 256.019 393.671 253.941" stroke="#2F2C2D" stroke-width="0.5" stroke-miterlimit="10" stroke-linecap="round" stroke-linejoin="round"/>
<path d="M397.784 261.413L394.958 259.705" stroke="#2F2C2D" stroke-width="0.5" stroke-miterlimit="10" stroke-linecap="round" stroke-linejoin="round"/>
<path d="M393.278 261.748L392.348 259.101L390.095 259.001C390.095 259.001 391.526 256.924 394.136 256.622C396.747 256.321 399.036 257.761 399.036 257.761L396.497 258.163" stroke="#2F2C2D" stroke-width="0.5" stroke-miterlimit="10" stroke-linecap="round" stroke-linejoin="round"/>
<path d="M391.382 261.815C389.987 261.782 389.022 265.434 389.701 268.549C390.381 271.665 393.135 271.431 392.705 269.722C392.276 268.013 391.454 266.841 391.99 265.233C392.527 263.658 392.562 261.849 391.382 261.815Z" fill="#604582"/>
<path d="M396.317 255.918C394.887 245.365 390.345 246.303 389.701 237.525H386.911H384.122C383.478 246.303 378.936 245.398 377.506 255.918C375.896 267.946 376.683 287.144 376.683 287.144H386.911H397.14C397.104 287.144 397.927 267.946 396.317 255.918Z" fill="white"/>
<path opacity="0.12" d="M383.479 241.11H390.274C390.059 240.306 389.88 239.401 389.737 238.363H383.979C383.908 239.435 383.729 240.34 383.479 241.11Z" fill="#2E2854"/>
<path opacity="0.56" d="M392.062 250.055H381.762C381.225 250.055 380.76 250.357 380.582 250.826C380.045 252.199 379.616 253.875 379.294 256.153C378.15 264.763 378.257 277.26 378.4 283.391C378.436 284.53 379.437 285.468 380.653 285.468H393.206C394.422 285.468 395.423 284.564 395.459 283.391C395.602 277.26 395.709 264.763 394.565 256.153C394.243 253.875 393.814 252.199 393.278 250.826C393.063 250.357 392.562 250.055 392.062 250.055Z" fill="#B9B9B9"/>
<path d="M396.317 255.918C394.887 245.365 390.345 246.303 389.701 237.525H386.911H384.122C383.478 246.303 378.936 245.398 377.506 255.918C375.896 267.946 376.683 287.144 376.683 287.144H386.911H397.14C397.104 287.144 397.927 267.946 396.317 255.918Z" stroke="#2F2C2D" stroke-width="0.5" stroke-miterlimit="10" stroke-linecap="round" stroke-linejoin="round"/>
<path d="M384.873 245.733C383.192 248.882 381.869 253.07 381.154 264.763" stroke="white" stroke-width="0.5" stroke-miterlimit="10" stroke-linecap="round" stroke-linejoin="round"/>
<path d="M383.908 234.945H389.844C390.631 234.945 391.239 235.548 391.239 236.251V238.463C391.239 238.664 391.06 238.831 390.846 238.831H382.906C382.692 238.831 382.513 238.664 382.513 238.463V236.251C382.513 235.514 383.121 234.945 383.908 234.945Z" fill="#1C1919"/>
<path d="M383.908 234.945H389.844C390.631 234.945 391.239 235.548 391.239 236.251V238.463C391.239 238.664 391.06 238.831 390.846 238.831H382.906C382.692 238.831 382.513 238.664 382.513 238.463V236.251C382.513 235.514 383.121 234.945 383.908 234.945Z" fill="#2F2C2D" stroke="#2F2C2D" stroke-width="0.5" stroke-miterlimit="10" stroke-linecap="round" stroke-linejoin="round"/>
<path d="M386.912 234.945V238.831" stroke="#2F2C2D" stroke-width="0.5" stroke-miterlimit="10" stroke-linecap="round" stroke-linejoin="round"/>
<path d="M385.446 234.945V238.831" stroke="#2F2C2D" stroke-width="0.5" stroke-miterlimit="10" stroke-linecap="round" stroke-linejoin="round"/>
<path d="M383.979 234.945V238.831" stroke="#2F2C2D" stroke-width="0.5" stroke-miterlimit="10" stroke-linecap="round" stroke-linejoin="round"/>
<path d="M389.808 234.945V238.831" stroke="#2F2C2D" stroke-width="0.5" stroke-miterlimit="10" stroke-linecap="round" stroke-linejoin="round"/>
<path d="M388.342 234.945V238.831" stroke="#2F2C2D" stroke-width="0.5" stroke-miterlimit="10" stroke-linecap="round" stroke-linejoin="round"/>
<path d="M363.594 284.966C363.594 284.966 365.596 276.657 362.735 271.732C359.874 266.807 357.299 258.532 362.735 256.119C368.171 253.707 373.607 261.078 373.572 269.219C373.536 277.361 372.177 283.827 372.177 283.827L363.594 284.966Z" fill="#82BD54"/>
<path d="M370.318 281.449C370.89 282.353 371.427 283.157 371.927 283.894L372.178 283.861C372.178 283.861 373.501 277.395 373.573 269.253C373.608 264.697 371.892 260.375 369.46 257.896C368.244 261.547 365.061 273.106 370.318 281.449Z" fill="#68A14B"/>
<path d="M363.558 258.062C363.558 258.062 371.247 269.018 368.208 284.363" stroke="#2F2C2D" stroke-width="0.5" stroke-miterlimit="10" stroke-linecap="round" stroke-linejoin="round"/>
<path d="M360.232 266.003C360.232 266.003 363.987 266.707 367.17 266.003" stroke="#2F2C2D" stroke-width="0.5" stroke-miterlimit="10" stroke-linecap="round" stroke-linejoin="round"/>
<path d="M372.893 264.227C372.893 264.227 371.033 267.443 367.814 268.247" stroke="#2F2C2D" stroke-width="0.5" stroke-miterlimit="10" stroke-linecap="round" stroke-linejoin="round"/>
<path d="M363.558 273.574C363.558 273.574 365.454 274.043 368.708 273.072" stroke="#2F2C2D" stroke-width="0.5" stroke-miterlimit="10" stroke-linecap="round" stroke-linejoin="round"/>
<path d="M368.887 275.719C368.887 275.719 371.319 275.484 373.358 274.446" stroke="#2F2C2D" stroke-width="0.5" stroke-miterlimit="10" stroke-linecap="round" stroke-linejoin="round"/>
<path d="M362.736 256.119C368.172 253.707 373.608 261.078 373.572 269.219C373.536 277.361 372.177 283.827 372.177 283.827L363.594 284.933C363.594 284.933 365.597 276.624 362.736 271.699C360.912 268.583 359.195 264.093 359.624 260.609" stroke="#2F2C2D" stroke-width="0.5" stroke-miterlimit="10" stroke-linecap="round" stroke-linejoin="round"/>
<path d="M360.232 258.431C360.482 257.929 360.804 257.493 361.233 257.125" stroke="#2F2C2D" stroke-width="0.5" stroke-miterlimit="10" stroke-linecap="round" stroke-linejoin="round"/>
<path d="M371.104 282.151H379.831C379.831 282.151 378.865 277.796 380.153 271.229C381.44 264.662 384.981 253.908 377.792 252.97C370.568 252.032 369.531 262.384 369.209 269.051C368.887 275.719 371.104 282.151 371.104 282.151Z" fill="#82BD54"/>
<path d="M378.543 253.104C378.543 253.104 374.394 261.111 374.859 282.152" stroke="#2F2C2D" stroke-width="0.5" stroke-miterlimit="10" stroke-linecap="round" stroke-linejoin="round"/>
<path d="M381.94 262.686C381.94 262.686 378.865 263.591 375.825 263.691" stroke="#2F2C2D" stroke-width="0.5" stroke-miterlimit="10" stroke-linecap="round" stroke-linejoin="round"/>
<path d="M370.317 260.307C370.317 260.307 372.106 262.485 375.682 264.763" stroke="#2F2C2D" stroke-width="0.5" stroke-miterlimit="10" stroke-linecap="round" stroke-linejoin="round"/>
<path d="M374.895 273.91C374.895 273.91 377.47 273.307 380.045 272" stroke="#2F2C2D" stroke-width="0.5" stroke-miterlimit="10" stroke-linecap="round" stroke-linejoin="round"/>
<path d="M369.209 269.252C369.209 269.252 371.677 271.497 374.967 272.201" stroke="#2F2C2D" stroke-width="0.5" stroke-miterlimit="10" stroke-linecap="round" stroke-linejoin="round"/>
<path d="M373.143 254.444C372.857 254.712 372.607 255.014 372.356 255.349" stroke="#2F2C2D" stroke-width="0.5" stroke-miterlimit="10" stroke-linecap="round" stroke-linejoin="round"/>
<path d="M371.355 257.125C369.817 260.542 369.388 265.366 369.209 269.052C368.851 275.719 371.104 282.152 371.104 282.152H379.831C379.831 282.152 378.865 277.796 380.153 271.23C381.44 264.663 384.981 253.908 377.792 252.97C376.54 252.803 375.503 252.97 374.573 253.406" stroke="#2F2C2D" stroke-width="0.5" stroke-miterlimit="10" stroke-linecap="round" stroke-linejoin="round"/>
<path d="M389.058 290.796C382.048 291.265 376.97 284.229 379.044 272.972C381.118 261.715 388.914 262.452 391.561 266.305C394.172 270.158 391.275 274.078 393.135 278.098C394.958 282.085 396.89 290.26 389.058 290.796Z" fill="#BABFFC"/>
<path d="M382.691 264.764C382.691 264.764 384.587 263.055 387.197 263.356C389.808 263.658 391.704 265.568 391.704 265.568L389.129 265.4L389.558 268.818L387.233 266.539L385.087 268.181L384.837 265.4L382.691 264.764Z" fill="#00887E"/>
<path d="M387.162 264.797C387.162 264.797 387.949 262.887 387.377 260.642" stroke="#2F2C2D" stroke-width="0.5" stroke-miterlimit="10" stroke-linecap="round" stroke-linejoin="round"/>
<path d="M389.522 268.784L387.233 266.505" stroke="#2F2C2D" stroke-width="0.5" stroke-miterlimit="10" stroke-linecap="round" stroke-linejoin="round"/>
<path d="M385.088 268.147L384.837 265.367L382.656 264.764C382.656 264.764 384.551 263.055 387.162 263.356C389.773 263.658 391.668 265.568 391.668 265.568L389.093 265.4" stroke="#2F2C2D" stroke-width="0.5" stroke-miterlimit="10" stroke-linecap="round" stroke-linejoin="round"/>
<path d="M408.191 288.45H400.287V255.583L408.191 253.54V288.45Z" fill="#FC9C9C"/>
<path d="M400.323 255.718C400.072 254.981 401.646 253.875 403.792 253.238C405.937 252.602 407.904 252.669 408.155 253.406C408.405 254.143 406.832 255.249 404.686 255.885C402.504 256.522 400.573 256.455 400.323 255.718Z" fill="#B2407E"/>
<path d="M401.968 255.985C401.145 255.985 400.716 255.817 400.645 255.616C400.609 255.449 400.788 255.114 401.36 254.712C401.968 254.276 402.898 253.874 403.899 253.573C404.829 253.305 405.723 253.137 406.474 253.137C407.297 253.137 407.726 253.305 407.797 253.506C407.94 253.908 406.724 254.913 404.543 255.549C403.649 255.851 402.719 255.985 401.968 255.985Z" fill="#D178A9"/>
<path d="M408.191 253.54V288.45H400.287V255.583" stroke="#2F2C2D" stroke-width="0.5" stroke-miterlimit="10" stroke-linecap="round" stroke-linejoin="round"/>
<path d="M404.257 253.138C406.224 252.635 407.941 252.736 408.191 253.406C408.441 254.143 406.868 255.249 404.722 255.885C402.576 256.522 400.609 256.455 400.359 255.718C400.252 255.45 400.43 255.115 400.752 254.813" stroke="#2F2C2D" stroke-width="0.5" stroke-miterlimit="10" stroke-linecap="round" stroke-linejoin="round"/>
<path d="M401.611 254.176C401.861 254.009 402.183 253.875 402.505 253.741" stroke="#2F2C2D" stroke-width="0.5" stroke-miterlimit="10" stroke-linecap="round" stroke-linejoin="round"/>
<path d="M402.075 255.617C401.932 255.617 401.896 255.584 401.86 255.55C401.86 255.517 401.896 255.483 401.968 255.416C402.075 255.349 402.218 255.282 402.361 255.249C402.504 255.215 402.647 255.182 402.754 255.182C402.898 255.182 402.933 255.215 402.969 255.249C403.005 255.316 402.79 255.45 402.468 255.55C402.325 255.584 402.182 255.617 402.075 255.617Z" fill="#E09DC5"/>
<path d="M406.367 254.411C406.224 254.411 406.188 254.377 406.152 254.344C406.152 254.31 406.188 254.277 406.259 254.21C406.367 254.143 406.51 254.076 406.653 254.042C406.796 254.009 406.939 253.975 407.046 253.975C407.189 253.975 407.225 254.009 407.261 254.042C407.297 254.109 407.082 254.243 406.76 254.344C406.617 254.377 406.474 254.411 406.367 254.411Z" fill="#E09DC5"/>
<path d="M404.365 255.382C404.221 255.382 404.186 255.349 404.15 255.315C404.15 255.282 404.186 255.248 404.257 255.181C404.365 255.114 404.508 255.047 404.651 255.014C404.794 254.98 404.937 254.947 405.044 254.947C405.187 254.947 405.223 254.98 405.259 255.014C405.294 255.081 405.08 255.215 404.758 255.315C404.615 255.382 404.472 255.382 404.365 255.382Z" fill="#E09DC5"/>
<path d="M403.041 254.411C402.898 254.411 402.862 254.377 402.826 254.344C402.826 254.31 402.862 254.277 402.933 254.21C403.041 254.143 403.184 254.076 403.327 254.042C403.47 254.009 403.613 253.975 403.72 253.975C403.863 253.975 403.899 254.009 403.935 254.042C403.97 254.109 403.756 254.243 403.434 254.344C403.291 254.377 403.148 254.411 403.041 254.411Z" fill="#E09DC5"/>
<path d="M404.078 254.712C404.007 254.712 403.935 254.679 403.935 254.679C403.935 254.645 403.935 254.612 404.007 254.578C404.078 254.545 404.185 254.478 404.293 254.444C404.4 254.411 404.507 254.411 404.579 254.411C404.65 254.411 404.722 254.444 404.722 254.444C404.722 254.478 404.615 254.612 404.364 254.679C404.257 254.679 404.15 254.712 404.078 254.712Z" fill="#E09DC5"/>
<path d="M401.789 255.014C401.717 255.014 401.646 254.98 401.646 254.98C401.646 254.947 401.646 254.913 401.717 254.88C401.789 254.846 401.896 254.779 402.003 254.746C402.111 254.712 402.218 254.712 402.29 254.712C402.361 254.712 402.433 254.746 402.433 254.746C402.433 254.779 402.325 254.913 402.075 254.98C401.968 254.98 401.896 255.014 401.789 255.014Z" fill="#E09DC5"/>
<path d="M405.187 253.875C405.116 253.875 405.044 253.841 405.044 253.841C405.044 253.808 405.044 253.774 405.116 253.741C405.187 253.707 405.295 253.64 405.402 253.607C405.509 253.573 405.617 253.573 405.688 253.573C405.76 253.573 405.831 253.607 405.831 253.607C405.831 253.64 405.724 253.774 405.474 253.841C405.366 253.875 405.295 253.875 405.187 253.875Z" fill="#E09DC5"/>
<path d="M402.183 266.673H394.279V290.896H402.183V266.673Z" fill="#FC9C9C"/>
<path d="M394.279 266.673C394.279 265.936 396.031 265.333 398.213 265.333C400.394 265.333 402.147 265.936 402.147 266.673C402.147 267.41 400.394 268.013 398.213 268.013C396.031 268.013 394.279 267.41 394.279 266.673Z" fill="#B2407E"/>
<path d="M398.249 267.678C396.103 267.678 394.672 267.075 394.672 266.673C394.672 266.271 396.103 265.668 398.249 265.668C400.394 265.668 401.825 266.271 401.825 266.673C401.825 267.075 400.394 267.678 398.249 267.678Z" fill="#D178A9"/>
<path d="M402.183 266.673V290.896H394.279V266.673" stroke="#2F2C2D" stroke-width="0.5" stroke-miterlimit="10" stroke-linecap="round" stroke-linejoin="round"/>
<path d="M399.965 265.5C401.289 265.702 402.183 266.171 402.183 266.707C402.183 267.444 400.43 268.047 398.249 268.047C396.067 268.047 394.315 267.444 394.315 266.707C394.315 266.472 394.494 266.271 394.78 266.07" stroke="#2F2C2D" stroke-width="0.5" stroke-miterlimit="10" stroke-linecap="round" stroke-linejoin="round"/>
<path d="M395.495 265.735C396.21 265.501 397.176 265.367 398.249 265.367" stroke="#2F2C2D" stroke-width="0.5" stroke-miterlimit="10" stroke-linecap="round" stroke-linejoin="round"/>
<path d="M396.997 267.243C396.532 267.243 396.246 267.109 396.246 267.042C396.246 266.975 396.532 266.841 396.997 266.841C397.462 266.841 397.748 266.975 397.748 267.042C397.748 267.109 397.426 267.243 396.997 267.243Z" fill="#E09DC5"/>
<path d="M397.855 266.305C397.39 266.305 397.104 266.171 397.104 266.104C397.104 266.037 397.39 265.903 397.855 265.903C398.32 265.903 398.606 266.037 398.606 266.104C398.606 266.171 398.32 266.305 397.855 266.305Z" fill="#E09DC5"/>
<path d="M400.788 266.874C400.323 266.874 400.037 266.74 400.037 266.673C400.037 266.606 400.323 266.472 400.788 266.472C401.253 266.472 401.539 266.606 401.539 266.673C401.539 266.773 401.217 266.874 400.788 266.874Z" fill="#E09DC5"/>
<path d="M398.784 266.74C398.498 266.74 398.284 266.673 398.284 266.606C398.284 266.539 398.498 266.472 398.784 266.472C399.07 266.472 399.285 266.539 399.285 266.606C399.285 266.673 399.07 266.74 398.784 266.74Z" fill="#E09DC5"/>
<path d="M395.889 266.606C395.602 266.606 395.388 266.539 395.388 266.472C395.388 266.405 395.602 266.338 395.889 266.338C396.175 266.338 396.389 266.405 396.389 266.472C396.389 266.539 396.175 266.606 395.889 266.606Z" fill="#E09DC5"/>
<path d="M398.821 267.443C398.535 267.443 398.32 267.376 398.32 267.309C398.32 267.242 398.535 267.175 398.821 267.175C399.107 267.175 399.322 267.242 399.322 267.309C399.322 267.376 399.107 267.443 398.821 267.443Z" fill="#E09DC5"/>
<path d="M399.715 266.238C399.428 266.238 399.214 266.171 399.214 266.104C399.214 266.037 399.428 265.97 399.715 265.97C400.001 265.97 400.215 266.037 400.215 266.104C400.215 266.137 400.001 266.238 399.715 266.238Z" fill="#E09DC5"/>
<path d="M362.568 324.127H427.008V277.378H362.568V324.127Z" fill="white" stroke="#263238" stroke-miterlimit="10" stroke-linecap="round" stroke-linejoin="round"/>
<path d="M362.599 324.127H401.441V277.378H362.599V324.127Z" fill="white" stroke="#263238" stroke-miterlimit="10" stroke-linecap="round" stroke-linejoin="round"/>
<path d="M378.018 299.131H386.122V277.387H378.018V299.131Z" fill="white" stroke="#263238" stroke-miterlimit="10" stroke-linecap="round" stroke-linejoin="round"/>
<path d="M323.803 276.712C323.803 276.712 323.21 278.59 324.199 281.258C325.187 283.828 326.67 288.374 327.658 289.758C328.646 291.142 328.35 293.217 328.35 293.217L341.594 299.345C341.594 299.345 341.791 294.403 342.285 294.107C342.78 293.909 346.437 293.909 347.227 292.525C348.018 291.241 347.128 284.718 347.128 284.718C347.128 284.718 347.82 284.026 347.919 283.334C348.018 282.642 346.14 280.962 346.338 279.677C346.535 278.392 347.128 276.91 346.239 275.032C345.25 273.154 342.483 268.509 338.134 267.125C333.786 265.741 329.042 267.323 327.164 269.398C325.286 271.474 323.606 273.747 323.803 276.712Z" fill="white" stroke="#263238" stroke-miterlimit="10" stroke-linecap="round" stroke-linejoin="round"/>
<path d="M343.472 278.096C343.768 277.602 344.46 276.119 344.46 275.131C344.46 274.142 343.076 273.945 340.902 274.834C339.123 275.526 328.35 279.381 324.199 281.16C325.088 283.63 326.571 287.88 327.559 289.462C327.954 289.857 328.251 290.252 328.449 290.351C329.536 290.944 332.501 289.758 333.588 288.078C334.478 286.694 334.873 282.741 334.972 281.456C334.972 281.16 334.972 280.962 334.972 280.962C335.367 279.875 337.047 279.776 338.134 280.468C339.32 281.061 340.408 281.16 341.099 280.863C341.89 280.567 342.088 279.776 342.088 279.282C341.989 278.886 343.076 278.59 343.472 278.096Z" fill="#263238" stroke="#263238" stroke-miterlimit="10" stroke-linecap="round" stroke-linejoin="round"/>
<path d="M339.222 281.654C339.222 281.654 337.64 279.282 336.158 281.258C334.774 283.235 337.146 285.903 338.036 286.398C338.925 286.892 339.419 286.299 339.617 285.607" fill="white"/>
<path d="M339.222 281.654C339.222 281.654 337.64 279.282 336.158 281.258C334.774 283.235 337.146 285.903 338.036 286.398C338.925 286.892 339.419 286.299 339.617 285.607" stroke="#263238" stroke-miterlimit="10" stroke-linecap="round" stroke-linejoin="round"/>
<path d="M338.134 267.125C333.786 265.741 329.042 267.323 327.164 269.398C325.286 271.375 323.704 273.747 323.803 276.712C323.803 276.712 323.21 278.59 324.199 281.258C324.495 281.95 324.792 282.84 325.088 283.828H325.187C325.187 283.828 329.239 284.718 333.588 282.543C338.036 280.369 345.152 276.415 345.843 275.131C345.942 275.032 346.041 274.933 346.239 274.834C345.053 272.759 342.285 268.509 338.134 267.125Z" fill="white" stroke="#263238" stroke-miterlimit="10" stroke-linecap="round" stroke-linejoin="round"/>
<path d="M343.076 277.502C343.076 277.502 348.413 277.601 351.181 276.217C354.047 274.834 353.553 272.165 353.059 271.968C352.565 271.77 344.954 272.758 344.954 272.758C344.954 272.758 345.547 275.624 343.076 277.502Z" fill="white" stroke="#263238" stroke-miterlimit="10" stroke-linecap="round" stroke-linejoin="round"/>
<path d="M345.745 280.665C345.745 281.258 345.547 281.753 345.35 281.753C345.152 281.753 344.954 281.258 344.954 280.665C344.954 280.072 345.152 279.578 345.35 279.578C345.547 279.479 345.745 280.072 345.745 280.665Z" fill="#263238"/>
<path d="M343.669 301.915C343.669 301.915 341.692 298.456 339.32 296.677C336.948 294.898 331.117 292.625 328.745 292.427C326.472 292.229 327.163 293.514 326.867 294.799C326.57 296.183 326.274 296.578 327.065 296.776C327.855 296.973 331.512 297.665 336.157 299.84C340.803 302.014 343.273 303.398 343.768 303.101C344.262 302.903 343.669 301.915 343.669 301.915Z" fill="white" stroke="#263238" stroke-miterlimit="10" stroke-linecap="round" stroke-linejoin="round"/>
<path d="M335.268 474.579C335.268 474.579 338.628 480.015 340.506 481.103C342.384 482.19 345.942 483.376 346.239 485.352C346.535 487.329 344.064 487.23 342.878 487.23C341.692 487.23 333.785 487.527 332.402 486.934C331.018 486.44 327.855 483.969 324.198 481.992C320.542 480.015 317.379 479.719 317.379 476.358C317.379 472.998 320.443 472.306 321.036 471.812C321.629 471.417 335.268 474.579 335.268 474.579Z" fill="white" stroke="#263238" stroke-miterlimit="10" stroke-linecap="round" stroke-linejoin="round"/>
<path d="M322.617 381.181C322.617 381.181 325.978 412.709 326.077 414.389C326.175 415.97 323.902 421.703 323.013 426.842C322.123 431.883 320.838 446.016 320.838 446.016L321.234 473.69C321.234 473.69 329.239 475.568 330.425 475.469C331.611 475.37 334.675 474.777 335.071 474.678C335.466 474.58 337.739 473.789 337.739 473.789C337.739 473.789 337.245 464.597 337.245 461.632C337.245 458.667 339.123 439.79 339.518 437.912C339.913 436.034 344.559 408.459 345.25 393.93C345.942 379.303 343.471 367.146 343.471 367.146L320.443 368.332L322.617 381.181Z" fill="white" stroke="#263238" stroke-miterlimit="10" stroke-linecap="round" stroke-linejoin="round"/>
<path d="M328.448 475.074C328.448 475.074 330.425 479.917 331.414 480.707C332.303 481.498 338.233 483.771 338.53 484.859C338.826 485.946 337.739 486.835 336.256 487.231C334.774 487.626 324.199 487.626 322.123 486.539C319.949 485.452 313.327 480.51 311.449 479.719C309.571 478.928 306.507 477.841 307.298 474.481C308.089 471.12 312.141 468.551 312.141 468.551L328.448 475.074Z" fill="white" stroke="#263238" stroke-miterlimit="10" stroke-linecap="round" stroke-linejoin="round"/>
<path d="M318.763 365.861C318.763 365.861 317.379 372.384 319.455 377.524C321.53 382.663 327.065 389.384 328.053 390.768C328.943 392.151 327.757 407.668 327.164 413.599C326.472 419.627 325.385 429.808 325.385 430.203C325.385 430.598 319.652 445.325 317.181 452.144C314.809 458.964 310.757 468.748 310.757 468.748C310.757 468.748 316.094 472.801 318.763 473.591C321.431 474.382 328.35 475.173 328.35 475.173C328.35 475.173 329.042 472.01 329.734 470.626C330.425 469.243 329.635 468.748 330.425 465.19C331.216 461.534 340.21 442.36 343.57 436.825C346.931 431.389 348.907 421.308 350.291 416.366C351.675 411.424 351.675 391.262 351.873 384.245C352.169 377.326 349.896 369.419 349.896 369.419L349.204 366.85L318.763 365.861Z" fill="white" stroke="#263238" stroke-miterlimit="10" stroke-linecap="round" stroke-linejoin="round"/>
<path d="M339.123 368.827C339.123 368.827 338.233 370.309 338.53 372.78C338.826 375.251 341 376.14 342.186 377.623C343.372 379.105 341 379.797 340.407 381.576C339.814 383.355 341.593 384.937 341.593 386.123C341.593 387.012 341.89 392.349 341.396 400.058" stroke="#263238" stroke-miterlimit="10" stroke-linecap="round" stroke-linejoin="round"/>
<path d="M317.873 361.018C317.873 361.018 316.786 366.257 317.774 366.751C318.664 367.245 348.314 366.85 349.204 366.751C350.093 366.652 350.686 366.454 350.785 365.268C350.884 364.082 350.291 360.821 350.291 360.821L317.873 361.018Z" fill="white" stroke="#263238" stroke-miterlimit="10" stroke-linecap="round" stroke-linejoin="round"/>
<path d="M327.164 296.875C327.164 296.875 318.17 302.31 315.995 309.427C313.821 316.543 316.885 348.071 316.885 348.071C316.885 348.071 314.414 358.943 316.687 361.117C319.059 363.292 349.105 362.797 350.39 361.809C351.774 360.821 352.762 358.745 352.762 356.571C352.762 354.396 353.454 335.222 353.454 324.548C353.454 313.775 348.314 306.857 346.041 304.386C343.768 301.915 342.187 301.52 342.187 301.52C342.187 301.52 330.129 296.875 327.164 296.875Z" fill="#FF4FA1" stroke="#263238" stroke-miterlimit="10" stroke-linecap="round" stroke-linejoin="round"/>
<path d="M341.791 304.683C341.791 304.683 347.425 303.595 351.181 305.572C354.936 307.549 360.965 313.578 362.645 314.368C364.227 315.159 367.093 317.926 369.465 318.618C371.837 319.211 375.692 320.496 375.692 320.496C375.692 320.496 387.058 319.705 388.343 319.607C389.627 319.508 399.116 319.705 399.116 319.705C399.116 319.705 399.61 321.386 399.807 323.362C400.005 325.339 399.807 326.723 399.807 326.723C399.807 326.723 396.348 328.798 395.459 328.996C394.569 329.194 386.366 331.368 379.349 333.542C372.232 335.717 361.361 334.037 353.948 332.06C346.535 330.182 329.239 322.967 328.35 322.572" fill="#FF4FA1"/>
<path d="M341.791 304.683C341.791 304.683 347.425 303.595 351.181 305.572C354.936 307.549 360.965 313.578 362.645 314.368C364.227 315.159 367.093 317.926 369.465 318.618C371.837 319.211 375.692 320.496 375.692 320.496C375.692 320.496 387.058 319.705 388.343 319.607C389.627 319.508 399.116 319.705 399.116 319.705C399.116 319.705 399.61 321.386 399.807 323.362C400.005 325.339 399.807 326.723 399.807 326.723C399.807 326.723 396.348 328.798 395.459 328.996C394.569 329.194 386.366 331.368 379.349 333.542C372.232 335.717 361.361 334.037 353.948 332.06C346.535 330.182 329.239 322.967 328.35 322.572" stroke="#263238" stroke-miterlimit="10" stroke-linecap="round" stroke-linejoin="round"/>
<path d="M342.75 328.375C342.75 328.375 337.739 338.187 331.018 342.833" stroke="#263238" stroke-miterlimit="10" stroke-linecap="round" stroke-linejoin="round"/>
<path d="M398.917 319.507C398.917 319.507 400.993 317.234 402.377 315.949C403.76 314.763 405.44 313.972 406.231 313.379C407.022 312.786 407.615 310.217 408.801 311.106C409.987 311.996 409.69 312.885 409.295 313.676C408.9 314.467 407.911 316.048 407.516 316.641C407.22 317.333 407.22 317.333 407.22 317.333C407.22 317.333 410.679 318.123 412.161 318.123C413.644 318.123 417.795 318.321 417.894 319.013C417.993 319.705 417.498 320.496 417.202 320.594C416.807 320.594 411.766 320.99 411.766 320.99C411.766 320.99 415.917 323.362 415.917 323.757C415.917 324.152 415.027 324.844 413.94 325.141C412.853 325.437 411.272 326.821 409.493 327.019C407.813 327.117 402.772 326.821 402.179 326.623C401.586 326.426 399.708 326.524 399.708 326.524L398.917 319.507Z" fill="white" stroke="#263238" stroke-miterlimit="10" stroke-linecap="round" stroke-linejoin="round"/>
<path d="M409.987 323.065L413.94 325.24" stroke="#263238" stroke-miterlimit="10" stroke-linecap="round" stroke-linejoin="round"/>
<path d="M408.406 325.141L410.975 326.327" stroke="#263238" stroke-miterlimit="10" stroke-linecap="round" stroke-linejoin="round"/>
<defs>
<linearGradient id="paint0_linear_139_2133" x1="767.4" y1="261.454" x2="767.4" y2="485" gradientUnits="userSpaceOnUse">
<stop stop-color="#E1E1E1"/>
<stop offset="1" stop-color="white"/>
</linearGradient>
<linearGradient id="paint1_linear_139_2133" x1="75.1791" y1="361.554" x2="75.1791" y2="452.983" gradientUnits="userSpaceOnUse">
<stop stop-color="#EFEFEF"/>
<stop offset="1" stop-color="white"/>
</linearGradient>
</defs>
</svg>
