<svg width="270" height="62" viewBox="0 0 270 62" fill="none" xmlns="http://www.w3.org/2000/svg">
<path d="M121.929 38.6716C120.642 38.6716 119.388 38.6645 118.136 38.6788C117.912 38.6788 117.881 38.5474 117.83 38.3993C117.625 37.7879 117.412 37.1812 117.224 36.565C117.157 36.35 117.059 36.2831 116.834 36.2831C115.041 36.2927 113.247 36.2927 111.453 36.2831C111.231 36.2831 111.128 36.3452 111.064 36.565C110.875 37.1812 110.658 37.7879 110.455 38.3993C110.405 38.5498 110.374 38.6812 110.151 38.6788C108.9 38.6668 107.646 38.674 106.342 38.674C106.624 37.881 106.891 37.1191 107.163 36.3596C108.659 32.1893 110.156 28.019 111.642 23.8463C111.754 23.531 111.885 23.4021 112.246 23.4092C113.553 23.4355 114.859 23.4235 116.163 23.4164C116.388 23.4164 116.51 23.4618 116.596 23.6982C118.356 28.64 120.128 33.577 121.898 38.5164C121.91 38.5522 121.915 38.5904 121.934 38.6764L121.929 38.6716ZM114.143 27.4243C113.524 29.2658 112.936 31.0285 112.339 32.7888C112.268 33.0014 112.37 33.0014 112.521 33.0014C113.6 33.0014 114.68 32.9942 115.76 33.0038C116.022 33.0061 115.991 32.8987 115.929 32.7195C115.731 32.1487 115.545 31.5754 115.351 31.0022C114.957 29.8342 114.563 28.6687 114.143 27.4243Z" fill="#585858"/>
<path d="M269.435 38.6724C268.63 38.6724 267.825 38.6605 267.02 38.682C266.746 38.6892 266.593 38.5841 266.437 38.3787C264.562 35.8636 262.683 33.3557 260.803 30.8454C260.724 30.7403 260.643 30.6376 260.547 30.5134C260.435 30.6543 260.483 30.8024 260.481 30.9314C260.478 33.382 260.473 35.8325 260.485 38.2831C260.485 38.5817 260.426 38.6892 260.101 38.682C259.098 38.6581 258.097 38.6653 257.094 38.6796C256.85 38.682 256.783 38.6104 256.783 38.3691C256.79 33.4942 256.79 28.6193 256.783 23.7444C256.783 23.4889 256.848 23.4029 257.113 23.41C257.798 23.4292 258.486 23.4315 259.169 23.41C259.454 23.4005 259.621 23.5008 259.788 23.7229C261.658 26.238 263.54 28.7459 265.42 31.2562C265.496 31.3565 265.58 31.4545 265.716 31.6193C265.726 31.4043 265.738 31.2681 265.738 31.132C265.738 28.6934 265.745 26.2571 265.73 23.8185C265.73 23.4865 265.821 23.4029 266.148 23.4077C267.242 23.4268 268.339 23.4124 269.433 23.41V38.6724H269.435Z" fill="#585858"/>
<path d="M91.2445 29.7842C90.4157 32.636 89.5845 35.4735 88.7677 38.3158C88.6912 38.581 88.5885 38.6861 88.2924 38.6813C87.1196 38.6598 85.9445 38.6693 84.7693 38.6741C84.583 38.6741 84.4636 38.6598 84.3967 38.4329C82.9589 33.4553 81.5115 28.4825 80.0688 23.5073C80.0664 23.4953 80.0736 23.481 80.0855 23.4141H81.275C82.0274 23.4141 82.7797 23.4308 83.5297 23.4069C83.8235 23.3974 83.9358 23.4977 84.005 23.7724C84.8458 27.0446 85.6985 30.3168 86.5488 33.5867C86.5798 33.7109 86.618 33.8327 86.6801 34.05C86.8593 33.4529 87.0145 32.9418 87.1626 32.4282C87.9938 29.562 88.8298 26.6959 89.6442 23.8249C89.7374 23.4953 89.8759 23.395 90.2103 23.4069C90.934 23.4332 91.6625 23.4284 92.3862 23.4069C92.6728 23.3974 92.7946 23.4858 92.8735 23.7628C93.8169 27.0494 94.7723 30.3311 95.7253 33.6153C95.7587 33.7276 95.7922 33.8422 95.8591 34.0596C96.0167 33.472 96.1505 32.9776 96.2794 32.4808C97.039 29.5668 97.8033 26.6553 98.5509 23.7365C98.6178 23.4786 98.7181 23.4046 98.9736 23.4069C100.041 23.4213 101.111 23.4189 102.179 23.4069C102.435 23.4046 102.494 23.4595 102.418 23.7174C100.987 28.6138 99.566 33.5126 98.1496 38.4162C98.0804 38.6526 97.9562 38.6741 97.7555 38.6741C96.5804 38.6669 95.4076 38.6598 94.2325 38.6789C93.9507 38.6837 93.8527 38.5905 93.7763 38.3326C92.9881 35.5906 92.1856 32.851 91.3878 30.1114C91.3544 29.9992 91.3472 29.8773 91.2397 29.7818L91.2445 29.7842Z" fill="#585858"/>
<path d="M191.608 29.9345C190.683 31.3724 189.759 32.8103 188.837 34.2481C188.46 34.8357 188.085 35.4233 187.707 36.0108C187.447 36.4145 187.201 36.4145 186.943 36.0108C185.682 34.0499 184.423 32.089 183.164 30.128C183.124 30.0659 183.081 30.0062 182.971 29.8485V30.3669C182.971 33.0014 182.964 35.6382 182.978 38.2727C182.978 38.6047 182.892 38.6907 182.565 38.6812C181.588 38.6597 180.611 38.6644 179.636 38.6788C179.376 38.6835 179.273 38.631 179.273 38.3396C179.283 33.4766 179.283 28.6137 179.273 23.7508C179.273 23.4617 179.374 23.4044 179.636 23.4092C180.64 23.4235 181.643 23.4235 182.644 23.4092C182.89 23.4044 183.019 23.4952 183.145 23.691C184.452 25.7332 185.765 27.7682 187.079 29.8056C187.148 29.9154 187.222 30.0205 187.296 30.1328C187.456 30.0635 187.499 29.9154 187.573 29.7984C188.88 27.773 190.191 25.7499 191.486 23.7173C191.634 23.4856 191.787 23.4068 192.054 23.4092C193.043 23.4235 194.034 23.4211 195.023 23.4092C195.264 23.4068 195.372 23.4498 195.369 23.7269C195.362 28.6161 195.362 33.5053 195.369 38.3945C195.369 38.6238 195.295 38.6812 195.076 38.6788C194.061 38.6692 193.043 38.6573 192.028 38.6835C191.696 38.6931 191.679 38.5569 191.679 38.2942C191.686 35.6191 191.684 32.944 191.684 30.2689V29.9608L191.608 29.9345Z" fill="#585858"/>
<path d="M233.473 31.0216C233.489 27.3123 236.112 24.1022 239.824 23.345C243.165 22.6643 246.11 23.4597 248.365 26.087C251.957 30.274 250.042 36.6942 244.718 38.5047C241.116 39.7276 237.122 38.5501 234.968 35.629C233.972 34.2795 233.468 32.7222 233.475 31.0192L233.473 31.0216ZM246.495 31.0646C246.502 28.4277 244.534 26.5098 241.818 26.5145C239.126 26.5193 237.144 28.4325 237.139 31.0335C237.134 33.6442 239.102 35.5693 241.789 35.5812C244.519 35.5932 246.488 33.7039 246.497 31.0646H246.495Z" fill="#585858"/>
<path d="M172.857 38.6747C171.613 38.6747 170.366 38.6747 169.119 38.6747C168.906 38.6747 168.873 38.5027 168.796 38.3761C167.908 36.9144 167.017 35.4526 166.143 33.9813C166.004 33.7472 165.854 33.6469 165.582 33.6661C165.24 33.6899 164.894 33.6899 164.555 33.6661C164.275 33.6469 164.201 33.7401 164.203 34.0172C164.218 35.4407 164.203 36.8618 164.218 38.2854C164.22 38.5887 164.153 38.689 163.833 38.6819C162.83 38.6604 161.829 38.6651 160.826 38.6795C160.582 38.6819 160.516 38.6078 160.516 38.3666C160.523 33.4917 160.523 28.6168 160.516 23.7419C160.516 23.4887 160.578 23.4051 160.845 23.4075C162.93 23.4195 165.013 23.3932 167.098 23.4219C169.783 23.4601 171.956 25.3064 172.415 27.8907C172.757 29.811 171.741 31.8269 169.867 32.8731C169.537 33.057 169.563 33.1669 169.733 33.4391C170.753 35.0824 171.756 36.7376 172.764 38.3905C172.809 38.4645 172.888 38.5314 172.864 38.6699L172.857 38.6747ZM164.206 28.6311C164.206 29.1972 164.215 29.7633 164.201 30.3293C164.194 30.5586 164.273 30.616 164.492 30.6136C165.283 30.6016 166.074 30.6136 166.867 30.6088C167.963 30.6016 168.77 29.7919 168.792 28.6789C168.813 27.5802 168.02 26.7299 166.917 26.7036C166.112 26.6845 165.307 26.7084 164.504 26.6917C164.251 26.6869 164.194 26.7777 164.201 27.0117C164.215 27.5515 164.206 28.0913 164.206 28.6311Z" fill="#585858"/>
<path d="M143.808 31.0427C143.808 28.6447 143.815 26.2466 143.801 23.851C143.801 23.5238 143.851 23.4019 144.224 23.4043C147.283 23.4234 150.343 23.4187 153.402 23.4067C153.725 23.4067 153.83 23.4784 153.82 23.8152C153.797 24.6846 153.799 25.554 153.82 26.4234C153.828 26.7291 153.725 26.796 153.436 26.7936C151.59 26.7816 149.743 26.796 147.897 26.7793C147.558 26.7769 147.477 26.8748 147.491 27.1972C147.517 27.7896 147.512 28.3819 147.491 28.9743C147.481 29.2418 147.579 29.3015 147.83 29.2991C149.493 29.2895 151.155 29.3039 152.815 29.2872C153.142 29.2848 153.24 29.3708 153.231 29.7004C153.207 30.5554 153.211 31.4129 153.231 32.268C153.235 32.5427 153.159 32.6263 152.879 32.6239C151.231 32.6119 149.583 32.6239 147.933 32.6095C147.606 32.6071 147.467 32.6621 147.486 33.0323C147.522 33.6748 147.51 34.3221 147.489 34.967C147.479 35.2464 147.572 35.3181 147.844 35.3157C149.717 35.3037 151.59 35.3229 153.462 35.299C153.859 35.2942 153.937 35.4112 153.926 35.7814C153.897 36.6365 153.911 37.494 153.921 38.3491C153.921 38.564 153.904 38.6739 153.632 38.6739C150.453 38.6643 147.274 38.662 144.097 38.6739C143.786 38.6739 143.803 38.5186 143.803 38.3085C143.806 35.8842 143.803 33.4598 143.803 31.0379L143.808 31.0427Z" fill="#585858"/>
<path d="M202.634 31.0554C202.634 28.6454 202.641 26.233 202.627 23.8231C202.627 23.4958 202.708 23.4075 203.038 23.4075C206.112 23.4194 209.183 23.4194 212.257 23.4075C212.58 23.4075 212.654 23.503 212.647 23.8063C212.628 24.6614 212.625 25.5189 212.647 26.374C212.654 26.6964 212.57 26.7991 212.233 26.7967C210.399 26.78 208.567 26.7967 206.733 26.78C206.41 26.7776 206.298 26.8493 206.315 27.1861C206.346 27.7641 206.339 28.3445 206.315 28.9249C206.303 29.2139 206.379 29.3046 206.683 29.3022C208.319 29.2855 209.955 29.3094 211.589 29.2855C211.985 29.2784 212.069 29.4002 212.057 29.7704C212.028 30.5873 212.03 31.4041 212.057 32.221C212.069 32.5625 211.954 32.6294 211.634 32.627C209.986 32.6103 208.335 32.627 206.687 32.6127C206.391 32.6103 206.303 32.6891 206.315 32.9853C206.339 33.6158 206.341 34.2512 206.315 34.8817C206.3 35.2185 206.379 35.3284 206.742 35.3236C208.603 35.3021 210.461 35.3236 212.322 35.3045C212.668 35.3021 212.766 35.3833 212.754 35.7344C212.725 36.6038 212.737 37.4732 212.749 38.3426C212.754 38.5863 212.704 38.6794 212.432 38.6794C209.279 38.6699 206.126 38.6699 202.976 38.6794C202.694 38.6794 202.627 38.5982 202.627 38.3259C202.637 35.9016 202.632 33.4773 202.632 31.053L202.634 31.0554Z" fill="#585858"/>
<path d="M129.775 32.7225C129.775 30.8642 129.768 29.006 129.782 27.1501C129.785 26.8492 129.701 26.7775 129.41 26.7823C128.29 26.799 127.167 26.7823 126.047 26.7966C125.753 26.8014 125.634 26.7465 125.643 26.4145C125.669 25.5188 125.66 24.6231 125.648 23.7274C125.645 23.4958 125.696 23.4098 125.951 23.4122C129.737 23.4217 133.523 23.4193 137.308 23.4122C137.531 23.4122 137.605 23.4743 137.602 23.7012C137.59 24.6231 137.588 25.5451 137.602 26.467C137.607 26.7369 137.514 26.7966 137.261 26.7942C136.167 26.7823 135.07 26.7847 133.977 26.7895C133.391 26.7919 133.463 26.7083 133.463 27.3245C133.463 30.9598 133.456 34.5974 133.47 38.2327C133.47 38.6029 133.365 38.6889 133.012 38.6793C132.063 38.6555 131.113 38.6602 130.162 38.6793C129.861 38.6865 129.766 38.6172 129.768 38.2948C129.785 36.4365 129.775 34.5807 129.775 32.7225Z" fill="#585858"/>
<path d="M219.419 31.019C219.419 28.621 219.426 26.2229 219.412 23.8249C219.412 23.5001 219.491 23.4021 219.823 23.4093C220.8 23.4308 221.777 23.4308 222.751 23.4093C223.059 23.4021 223.117 23.5024 223.117 23.7891C223.107 27.4793 223.117 31.1695 223.1 34.8573C223.1 35.249 223.21 35.3302 223.582 35.3254C225.219 35.3039 226.855 35.323 228.491 35.3111C228.768 35.3111 228.849 35.3875 228.844 35.6646C228.828 36.5746 228.832 37.4822 228.844 38.3922C228.847 38.6144 228.782 38.6836 228.558 38.6813C225.615 38.6741 222.672 38.6717 219.732 38.6836C219.4 38.6836 219.422 38.5164 219.422 38.2943C219.424 35.87 219.422 33.4457 219.422 31.0214L219.419 31.019Z" fill="#585858"/>
<path d="M29.4619 62C28.7716 61.926 28.079 61.8543 27.3887 61.7755C23.1253 61.2882 19.1246 59.9841 15.4463 57.7915C7.87243 53.2773 2.98321 46.7352 0.85507 38.1773C-0.0310569 34.6161 -0.207807 30.9999 0.229285 27.3527C1.7603 14.6245 10.827 4.23458 23.2781 0.983859C27.028 0.00458152 30.8377 -0.231879 34.6951 0.221933C47.8437 1.77206 58.673 11.5003 61.3529 24.4364C63.5049 34.831 60.9755 44.0936 53.8507 51.9827C49.0498 57.2995 42.9974 60.4523 35.918 61.6107C34.9291 61.7731 33.9332 61.8854 32.9324 61.9307C32.8297 61.9355 32.7198 61.9164 32.6314 61.9952H29.4643L29.4619 62ZM30.9667 38.7314C31.098 38.975 31.1912 39.1446 31.2843 39.3142C32.7819 42.0944 34.2556 44.8865 35.7818 47.65C37.4227 50.6213 41.7626 50.681 43.4489 47.7408C45.0133 45.0131 46.4966 42.2425 48.0132 39.4886C50.0435 35.8007 52.0569 32.1034 54.1087 28.4275C55.205 26.4618 55.654 24.4244 55.1214 22.2031C54.369 19.0694 51.7536 16.337 47.9631 15.9381C44.8175 15.6085 41.5142 17.1658 39.89 20.204C39.0708 21.735 38.2348 23.2588 37.4275 24.7946C37.2508 25.1314 37.1385 25.1027 36.9188 24.8448C36.4578 24.3026 35.9395 23.8106 35.3997 23.3472C33.0446 21.3242 30.2286 21.0256 27.6443 22.5423C26.6101 23.149 25.7717 23.9921 24.9787 24.8782C24.7685 25.1147 24.6778 25.1219 24.5201 24.8233C23.7224 23.3114 22.9008 21.8114 22.0958 20.3019C20.4621 17.2375 17.2114 15.544 13.7648 15.9692C8.07784 16.6714 4.85578 22.8576 7.55715 27.9068C8.41939 29.519 9.31985 31.1122 10.2012 32.7148C12.9002 37.6255 15.6016 42.5363 18.2958 47.4494C19.1628 49.0306 20.4932 49.8928 22.2941 49.888C24.0926 49.8832 25.4302 49.0305 26.2828 47.4327C26.9994 46.0856 27.7231 44.7432 28.4468 43.3985C29.2708 41.8699 30.0972 40.3436 30.9667 38.7314Z" fill="#EC187B"/>
<path d="M30.9661 38.7315C30.0967 40.3437 29.2703 41.87 28.4463 43.3986C27.7226 44.7409 26.9988 46.0856 26.2823 47.4328C25.432 49.0283 24.0921 49.881 22.2935 49.8881C20.4926 49.8929 19.1622 49.033 18.2952 47.4495C15.601 42.5364 12.8996 37.6256 10.2007 32.7149C9.3193 31.1123 8.41885 29.5215 7.5566 27.9069C4.85762 22.8577 8.07729 16.6715 13.7643 15.9693C17.2108 15.5441 20.4616 17.2376 22.0953 20.302C22.9002 21.8115 23.7242 23.3091 24.5196 24.8234C24.6772 25.1196 24.768 25.1124 24.9782 24.8783C25.7712 23.9922 26.6095 23.1514 27.6437 22.5424C30.2281 21.0257 33.0441 21.3243 35.3991 23.3473C35.9413 23.8131 36.4572 24.3027 36.9182 24.8449C37.138 25.1028 37.2478 25.1315 37.427 24.7947C38.2343 23.2565 39.0702 21.7351 39.8895 20.2041C41.5137 17.1659 44.8169 15.6086 47.9626 15.9382C51.7531 16.3371 54.3661 19.0695 55.1208 22.2032C55.6559 24.4245 55.2068 26.4643 54.1081 28.4276C52.0564 32.1035 50.0429 35.8008 48.0127 39.4887C46.496 42.2426 45.0104 45.0156 43.4483 47.7409C41.7621 50.6811 37.4222 50.6238 35.7813 47.6501C34.2551 44.8866 32.7814 42.0945 31.2838 39.3143C31.193 39.1447 31.0999 38.9751 30.9661 38.7315ZM49.9283 33.8781C49.1496 34.277 48.3519 34.6018 47.461 34.64C46.1306 34.6998 44.9459 34.2722 43.8472 33.5676C42.0105 32.3877 40.618 30.7564 39.2876 29.0606C38.6809 28.2843 38.1101 27.4794 37.4222 26.7461C35.4732 30.3647 33.5409 33.9593 31.5991 37.5516C31.5011 37.7331 31.5417 37.8645 31.6277 38.0245C32.0362 38.7745 32.4398 39.5293 32.8435 40.2816C34.064 42.5531 35.2749 44.8269 36.5098 47.0912C37.1929 48.3404 38.2605 48.9948 39.7008 48.9733C41.1267 48.9518 42.1394 48.252 42.8154 47.0243C44.172 44.5594 45.5311 42.0945 46.8853 39.6272C47.9219 37.7379 48.9538 35.8438 49.988 33.9522L50.019 33.859L49.9283 33.8829V33.8781ZM12.004 33.8781L11.9132 33.8542L11.9419 33.9474C11.9634 33.9952 11.9801 34.0453 12.0063 34.0907C14.3638 38.378 16.7284 42.6606 19.0763 46.9527C19.7737 48.2281 20.796 48.9566 22.272 48.9662C23.7505 48.9757 24.7991 48.2592 25.4846 46.9837C27.0801 44.0196 28.6684 41.0507 30.2687 38.089C30.3953 37.8526 30.3977 37.6782 30.2687 37.4417C28.3937 33.9784 26.5283 30.5127 24.6725 27.0399C24.51 26.7342 24.4145 26.8058 24.2521 27.0112C23.7171 27.6967 23.1749 28.3751 22.6399 29.0606C21.4385 30.6035 20.1678 32.082 18.5723 33.2356C17.4664 34.0358 16.265 34.5971 14.8654 34.6448C13.8288 34.6807 12.8996 34.3486 12.0016 33.8805L12.004 33.8781ZM46.6799 16.8196C44.59 16.865 42.5168 17.8849 41.11 20.0034C39.9181 21.7972 39.0272 23.7772 37.9906 25.6665C37.907 25.817 37.9572 25.9006 38.0527 26.0105C39.13 27.2214 40.0423 28.5661 41.1004 29.7914C42.1538 31.0119 43.2716 32.168 44.6903 32.9753C46.3002 33.8901 47.9267 34.0167 49.5437 32.9753C50.1122 32.6098 50.6018 32.1536 51.0437 31.6401C52.0349 30.4913 52.6344 29.1059 53.3844 27.8114C53.9194 26.887 54.2873 25.9101 54.39 24.8473C54.8103 20.5122 51.4927 16.8482 46.6776 16.8172L46.6799 16.8196ZM14.8271 16.8124C14.4259 16.8387 14.0342 16.8506 13.6401 16.908C9.32886 17.5361 6.50567 22.0551 7.82411 26.2063C8.12745 27.1569 8.65769 27.9905 9.11867 28.8599C9.74206 30.035 10.3917 31.1911 11.3471 32.1441C13.1146 33.9068 15.2069 34.1815 17.3494 32.9084C18.706 32.1035 19.8047 31.0024 20.8055 29.8105C21.8302 28.59 22.7975 27.3241 23.8102 26.0965C23.987 25.8815 23.9894 25.7453 23.8652 25.5184C22.9575 23.8584 22.1001 22.1674 21.1542 20.5265C19.757 18.107 17.6049 16.9103 14.8271 16.8124ZM30.9518 36.7204C31.0115 36.6559 31.0211 36.6464 31.0282 36.6368C32.9032 33.1592 34.7757 29.6816 36.6531 26.2063C36.7367 26.0511 36.7128 25.9579 36.5958 25.8313C35.9939 25.1864 35.3872 24.5439 34.7136 23.9683C32.6643 22.2176 30.0824 22.0145 27.9232 23.4476C26.9129 24.1164 26.1056 25.0073 25.2887 25.8839C25.1406 26.0415 25.2576 26.1466 25.3221 26.266C26.8293 29.0725 28.3412 31.879 29.8507 34.683C30.2114 35.3518 30.5744 36.0182 30.9542 36.7204H30.9518Z" fill="#FEFEFE"/>
<path d="M12.0031 33.878C12.9011 34.3461 13.8303 34.6781 14.8669 34.6423C16.2665 34.5946 17.4679 34.0333 18.5738 33.2331C20.1717 32.0771 21.44 30.5986 22.6414 29.0581C23.1764 28.3726 23.7186 27.6942 24.2536 27.0087C24.4136 26.8033 24.5092 26.7317 24.674 27.0374C26.5298 30.5103 28.3952 33.9759 30.2702 37.4392C30.3992 37.6757 30.3968 37.85 30.2702 38.0865C28.6699 41.0482 27.0816 44.0171 25.4861 46.9812C24.7982 48.2567 23.752 48.9732 22.2735 48.9637C20.7975 48.9541 19.7776 48.2256 19.0778 46.9502C16.7299 42.6581 14.3653 38.3755 12.0078 34.0882C11.984 34.0428 11.9649 33.9927 11.9434 33.9449L12.0055 33.8756L12.0031 33.878Z" fill="#EC187B"/>
<path d="M49.9889 33.9473C48.9547 35.8389 47.9229 37.733 46.8863 39.6223C45.532 42.0896 44.1729 44.5545 42.8163 47.0194C42.1404 48.2471 41.1276 48.9469 39.7017 48.9684C38.2615 48.9899 37.1938 48.3355 36.5107 47.0863C35.2758 44.8244 34.0649 42.5482 32.8444 40.2767C32.4383 39.5244 32.0371 38.7696 31.6286 38.0196C31.5427 37.862 31.502 37.7306 31.6 37.5467C33.5394 33.9568 35.4741 30.3621 37.4231 26.7412C38.1086 27.4745 38.6794 28.2794 39.2885 29.0556C40.6165 30.7515 42.0114 32.3804 43.8481 33.5627C44.9444 34.2673 46.1315 34.6949 47.4619 34.6352C48.3528 34.5945 49.1529 34.2721 49.9292 33.8732L49.9913 33.9449L49.9889 33.9473Z" fill="#EC187B"/>
<path d="M46.6811 16.8196C51.4963 16.8482 54.8139 20.5146 54.3935 24.8497C54.2908 25.9125 53.923 26.8894 53.3879 27.8138C52.6379 29.1083 52.0384 30.4936 51.0472 31.6425C50.6054 32.1536 50.1157 32.6098 49.5473 32.9777C47.9303 34.0167 46.3037 33.8925 44.6939 32.9777C43.2751 32.1704 42.1573 31.0143 41.104 29.7938C40.0459 28.5685 39.1335 27.2238 38.0563 26.0128C37.9583 25.903 37.9106 25.8194 37.9942 25.6689C39.0308 23.7772 39.9217 21.7996 41.1135 20.0058C42.5203 17.8872 44.5935 16.8674 46.6835 16.822L46.6811 16.8196Z" fill="#EC187B"/>
<path d="M14.8275 16.8098C17.6053 16.9077 19.7573 18.1044 21.1546 20.5239C22.1004 22.1624 22.9579 23.8534 23.8655 25.5158C23.9897 25.7427 23.9873 25.8813 23.8106 26.0939C22.7978 27.3215 21.8281 28.5898 20.8058 29.8079C19.8051 31.0022 18.7064 32.1009 17.3497 32.9058C15.2072 34.1789 13.1149 33.9018 11.3475 32.1415C10.3897 31.1885 9.74001 30.0325 9.119 28.8573C8.65802 27.9879 8.12778 27.1543 7.82444 26.2037C6.506 22.0525 9.32919 17.5335 13.6404 16.9054C14.0345 16.848 14.4262 16.8361 14.8275 16.8098Z" fill="#EC187B"/>
<path d="M30.951 36.7181C30.5712 36.0159 30.2081 35.3495 29.8475 34.6808C28.338 31.8743 26.826 29.0702 25.3189 26.2637C25.2544 26.1467 25.1398 26.0392 25.2855 25.8816C26.1047 25.005 26.9096 24.1141 27.92 23.4453C30.0815 22.0123 32.6635 22.2153 34.7104 23.966C35.384 24.5417 35.9883 25.1842 36.5925 25.8291C36.7096 25.9556 36.7335 26.0488 36.6499 26.204C34.7725 29.6793 32.9 33.1569 31.025 36.6345C31.0178 36.6465 31.0083 36.6536 30.9486 36.7181H30.951Z" fill="#EC187B"/>
<path d="M11.9427 33.9474L11.9141 33.8542C11.9451 33.8614 11.9738 33.871 12.0048 33.8781C11.9833 33.902 11.9642 33.9259 11.9427 33.9474Z" fill="#18A4EB"/>
<path d="M49.9262 33.8781L50.017 33.8542C50.0074 33.8853 49.9979 33.9164 49.9859 33.9474L49.9238 33.8757L49.9262 33.8781Z" fill="#18A4EB"/>
</svg>
